<?xml version="1.0" encoding="utf-8"?>
<!-- Generator: Adobe Illustrator 29.8.7, SVG Export Plug-In . SVG Version: 9.03 Build 0)  -->
<svg version="1.1" id="Layer_1" xmlns="http://www.w3.org/2000/svg" xmlns:xlink="http://www.w3.org/1999/xlink" x="0px" y="0px"
	 viewBox="0 0 481.26 318.12" style="enable-background:new 0 0 481.26 318.12;" xml:space="preserve">
<style type="text/css">
	.st0{clip-path:url(#SVGID_00000071523832707219142900000002359763142326934710_);}
	.st1{clip-path:url(#SVGID_00000064326239892590072980000006716513920532627086_);fill:#FFFFFF;}
	.st2{clip-path:url(#SVGID_00000064326239892590072980000006716513920532627086_);fill:#E31F28;}
</style>
<g>
	<g>
		<defs>
			<rect id="SVGID_5_" width="481.23" height="318.12"/>
		</defs>
		<clipPath id="SVGID_00000013910334324839911510000001703925262598570171_">
			<use xlink:href="#SVGID_5_"  style="overflow:visible;"/>
		</clipPath>
		<g style="clip-path:url(#SVGID_00000013910334324839911510000001703925262598570171_);">
			<defs>
				<rect id="SVGID_7_" width="481.23" height="318.12"/>
			</defs>
			<clipPath id="SVGID_00000086693789899360245520000002762183842021797270_">
				<use xlink:href="#SVGID_7_"  style="overflow:visible;"/>
			</clipPath>
			<path style="clip-path:url(#SVGID_00000086693789899360245520000002762183842021797270_);fill:#FFFFFF;" d="M144.98,17
				C66.65,17,2.91,80.73,2.91,159.05c0,78.34,63.73,142.07,142.07,142.07h191.33c78.33,0,142.05-63.73,142.05-142.07
				C478.37,80.73,414.65,17,336.32,17H144.98z"/>
			<path style="clip-path:url(#SVGID_00000086693789899360245520000002762183842021797270_);fill:#FFFFFF;" d="M336.32,304H144.98
				C65.05,304,0.03,238.98,0.03,159.05c0-79.92,65.03-144.94,144.96-144.94h191.33c79.92,0,144.94,65.02,144.94,144.94
				C481.26,238.98,416.24,304,336.32,304 M144.98,17C66.65,17,2.91,80.73,2.91,159.05c0,78.34,63.73,142.07,142.07,142.07h191.33
				c78.33,0,142.05-63.73,142.05-142.07C478.37,80.73,414.65,17,336.32,17H144.98z"/>
			<path style="clip-path:url(#SVGID_00000086693789899360245520000002762183842021797270_);fill:#E31F28;" d="M369.76,150.38
				l63.62,75.67c13.18-19.04,20.92-42.13,20.92-66.99c0-26.24-8.62-50.51-23.17-70.13L369.76,150.38z"/>
			<path style="clip-path:url(#SVGID_00000086693789899360245520000002762183842021797270_);fill:#E31F28;" d="M189.47,82.54
				c47.51,0,83.31,12.09,87,52.12l50-52.13h99.57c-21.66-25.35-53.85-41.46-89.73-41.46H144.98c-35.89,0-68.09,16.1-89.75,41.46
				H189.47z"/>
			<path style="clip-path:url(#SVGID_00000086693789899360245520000002762183842021797270_);fill:#E31F28;" d="M111.19,133
				l-16.97,46.65h68.46c20.24,0,26.36-8.38,30.89-24.51c4.48-15.95-6.78-22.14-20.61-22.14H111.19z"/>
			<path style="clip-path:url(#SVGID_00000086693789899360245520000002762183842021797270_);fill:#E31F28;" d="M326.89,232.41
				l-52.89-66.83c-9.78,45.57-41.79,66.83-101.8,66.83H52.62c21.63,27.18,55,44.65,92.36,44.65h191.33
				c37.36,0,70.71-17.45,92.34-44.64H326.89z"/>
		</g>
	</g>
</g>
<g>
</g>
<g>
</g>
<g>
</g>
<g>
</g>
<g>
</g>
<g>
</g>
</svg>
