<svg width="240" height="360" viewBox="0 0 240 360" fill="none" xmlns="http://www.w3.org/2000/svg">
<rect width="240" height="360" fill="white"/>
<path d="M183.401 228.558L202.109 248.657H157.398L138.391 228.558H183.401Z" stroke="#2086E6" stroke-width="6"/>
<path d="M158.849 135.291C171.906 135.291 182.491 145.875 182.491 158.932V223.709H135.207V158.933C135.207 145.876 145.792 135.291 158.849 135.291Z" stroke="#2086E6" stroke-width="6"/>
<path d="M156.867 133.061C156.867 133.061 51.4935 129.988 40.5213 139.967C29.549 149.947 27.9866 215.96 36.2156 220.568C44.4446 225.177 131.792 225.177 131.792 225.177" stroke="#2086E6" stroke-width="6" stroke-linecap="round" stroke-linejoin="round"/>
<path d="M111.186 227.407V262C111.185 265.866 108.051 269 104.186 269H92.8418C88.9759 269 85.842 265.866 85.8418 262V227.407H111.186Z" stroke="#2086E6" stroke-width="6"/>
<path d="M93.4199 150.643C101.263 150.643 107.266 156.535 107.267 163.379C107.267 170.224 101.263 176.115 93.4199 176.116C85.5763 176.116 79.5723 170.224 79.5723 163.379C79.5724 156.535 85.5764 150.643 93.4199 150.643Z" stroke="#2086E6" stroke-width="6"/>
<mask id="path-7-inside-1_1302_336" fill="white">
<rect x="58.5488" y="87" width="36.8288" height="27.6348" rx="5"/>
</mask>
<rect x="58.5488" y="87" width="36.8288" height="27.6348" rx="5" stroke="#2086E6" stroke-width="12" mask="url(#path-7-inside-1_1302_336)"/>
<path d="M93.4203 148.795L92.6367 113.483" stroke="#2086E6" stroke-width="6" stroke-linecap="round" stroke-linejoin="round"/>
<rect x="145" y="163.163" width="79.2574" height="51.1871" rx="5" transform="rotate(-20.0421 145 163.163)" fill="#E31F28"/>
<path d="M186.666 147.962L210.926 139.112L195.333 199.287L171.074 208.137L186.666 147.962Z" fill="#F93039"/>
<path d="M219.426 177.436C217.396 178.176 216.347 180.431 217.087 182.461C217.828 184.49 220.082 185.54 222.112 184.799L227.071 182.99C229.101 182.25 230.15 179.996 229.409 177.965C228.669 175.935 226.415 174.886 224.385 175.627L219.426 177.436L219.426 177.436Z" fill="white"/>
<path d="M227.099 183.065L222.14 184.874C220.068 185.63 217.769 184.559 217.013 182.488C216.257 180.416 217.328 178.117 219.399 177.361L224.358 175.552C226.429 174.796 228.729 175.867 229.485 177.938C230.24 180.009 229.17 182.309 227.099 183.065M219.427 177.436C217.396 178.176 216.347 180.431 217.088 182.461C217.828 184.49 220.082 185.54 222.113 184.799L227.071 182.99C229.101 182.25 230.15 179.996 229.41 177.965C228.669 175.935 226.415 174.886 224.385 175.627L219.427 177.436L219.427 177.436Z" fill="white"/>
<path d="M226.513 178.768L228.877 180.127C229.038 179.509 229.021 178.838 228.786 178.193C228.538 177.513 228.085 176.966 227.522 176.595L226.513 178.768L226.513 178.768Z" fill="#E31F28"/>
<path d="M221.199 178.714C222.431 178.265 223.473 178.239 223.947 179.242L224.75 177.418L227.33 176.477C226.529 176.025 225.543 175.912 224.613 176.251L219.654 178.06C218.724 178.399 218.042 179.121 217.72 179.983L221.199 178.714L221.199 178.714Z" fill="#E31F28"/>
<path d="M219.647 180.762L219.648 182.131L221.422 181.484C221.947 181.293 222.026 181.017 221.991 180.557C221.956 180.101 221.606 180.047 221.248 180.178L219.647 180.762Z" fill="#E31F28"/>
<path d="M226.176 181.299L224.173 180.067C224.35 181.34 223.722 182.194 222.167 182.761L219.067 183.892C219.885 184.392 220.915 184.529 221.883 184.176L226.842 182.367C227.81 182.014 228.509 181.246 228.813 180.337L226.175 181.299L226.176 181.299Z" fill="#E31F28"/>
<path d="M63.5346 188.379C61.5257 188.379 57.7182 188.614 54.7422 189.919C53.6701 190.388 54.3747 192.65 54.8475 194.55C55.261 196.212 56.7512 196.704 57.7575 196.882C59.3292 197.161 62.9138 196.472 65.9558 195.346C66.7016 195.07 64.6408 193.867 63.4365 193.501C62.2322 193.136 61.6434 193.253 61.2812 193.491C59.8986 194.396 59.2598 196.343 57.7717 197.237C55.9269 197.774 53.793 198.249 51.3505 199.139C50.9276 199.437 50.8099 199.791 51.0454 200.511" stroke="#2086E6" stroke-width="46" stroke-linecap="round"/>
<path d="M59.2539 200.511C60.9061 200.511 64.949 200.04 67.3345 199.443C69.2689 198.958 71.3792 198.135 72.9261 198.369C74.0051 198.532 74.8334 199.08 75.5435 199.675C76.4902 200.467 82.2805 200.272 91.2443 200.745C102.752 201.352 104.565 202.531 107.352 203.066C108.597 203.245 110.481 203.48 111.746 203.602C113.011 203.723 113.6 203.723 114.207 203.723" stroke="#2086E6" stroke-width="46" stroke-linecap="round"/>
<path d="M123.841 215.142C124.905 215.142 127.046 215.613 128.357 216.624C128.946 217.078 128.955 218.111 129.192 219.06C129.312 219.538 129.429 220.009 129.608 219.368C130.263 217.016 130.264 211.727 130.205 206.082C130.172 202.905 129.907 197.229 129.966 189.797C129.993 186.483 130.264 181.877 130.205 175.517C130.143 168.779 130.378 160.681 130.917 158.235C131.495 155.611 131.806 153.423 132.404 151.157C133.03 148.782 134.418 146.643 139.107 141.12C141.736 138.022 143.46 137.359 144.184 136.757C145.903 135.331 139.785 137.112 132.771 137.291C126.23 137.457 113.629 137.351 106.726 137.41C99.8226 137.469 98.9983 137.587 98.5737 138.06C96.7876 140.048 97.7922 142.929 98.7931 144.774C100.233 147.427 104.8 144.845 106.404 144.786C107.434 144.748 112.376 144.488 119.688 144.37C123.131 144.315 125.137 143.774 126.981 143.951C130.216 144.261 126.111 156.456 125.567 161.663C125.274 164.461 125.033 167.319 124.616 169.634C124.075 172.632 123.963 175.04 123.427 178.316C123.299 179.104 123.013 179.801 123.01 179.694C122.909 176.675 124.666 172.935 126.621 167.313C127.904 163.625 129.165 158.041 129.952 154.601C131.411 148.223 131.927 145.808 132.404 143.427C132.641 142.24 132.88 141.28 132.705 140.686C132.01 138.326 124.127 141.741 120.576 142.998C115.963 144.633 107.441 145.673 103.817 147.157C100.188 148.644 96.8501 149.598 94.7751 150.488C92.4334 151.493 88.1862 153.391 83.0798 156.951C80.7002 158.609 79.1511 160.51 77.7719 162.303C76.3927 164.096 75.3329 165.863 78.7907 165.183C82.2484 164.503 90.2558 161.324 95.735 158.92C101.214 156.517 103.923 154.986 106.554 153.079C109.186 151.172 111.659 148.934 112.108 148.135C112.558 147.336 110.909 148.042 107.646 150.055C104.383 152.067 99.555 155.365 93.5351 158.947C87.5153 162.53 80.45 166.298 77.399 167.592C74.3481 168.885 75.5256 167.59 77.3687 165.98C81.5512 162.328 88.9427 157.955 92.7233 157.504C95.0394 157.227 85.0817 166.591 81.0352 171.053C76.9887 175.515 75.8111 177.281 78.7372 175.13C81.6632 172.978 88.7286 166.855 92.7804 163.229C96.8323 159.604 97.6566 158.662 98.2579 158.059C98.8591 157.456 99.2124 157.22 96.3916 160.749C93.5708 164.278 87.5653 171.579 84.6481 175.222C81.731 178.866 82.0843 178.63 84.798 176.272C87.5118 173.913 92.5753 169.438 96.2435 165.897C99.9118 162.355 102.031 159.882 100.768 162.553C99.505 165.224 94.7948 173.114 93.8402 175.294C92.8857 177.474 95.8296 173.706 99.8779 169.351C103.926 164.996 108.99 160.168 111.951 157.15C114.913 154.133 115.62 153.074 115.925 152.763C116.098 152.587 114.107 156.588 110.546 162.937C108.791 166.063 107.455 169.167 106.551 171.039C105.646 172.91 105.293 173.499 106.818 170.917C111.755 162.563 115.513 155.679 114.103 158.314C112.246 161.786 108.925 170.016 106.87 174.967C104.815 179.918 104.344 181.449 106.633 178.058C108.922 174.666 113.985 166.305 116.712 161.704C119.758 156.563 119.916 155.436 119.857 155.075C119.837 154.952 119.681 155.893 118.56 159.495C117.44 163.097 115.32 169.574 113.934 174.382C112.547 179.19 111.959 182.134 111.596 184.534C111.234 186.934 111.116 188.7 112.999 184.134C114.881 179.569 118.767 168.617 120.828 162.152C122.888 155.686 123.006 154.037 123.067 153.6C123.128 153.163 123.128 153.987 122.598 158.357C122.068 162.726 121.008 170.616 120.462 175.445C119.916 180.275 119.916 181.806 120.21 182.771C120.505 183.737 121.094 184.09 121.574 184.331C122.053 184.572 122.407 184.689 122.765 184.573C125.322 183.747 126.689 178.288 128.774 175.353C133.783 168.305 125.39 185.992 125.092 186.887C125.062 186.977 125.147 186.252 125.208 180.766C125.269 175.28 125.269 165.035 125.21 159.522C125.133 152.334 124.437 150.558 123.964 150.023C123.328 149.302 121.119 150.076 118.92 150.727C117.289 151.211 115.766 155.047 113.509 160.034C111.723 163.98 110.999 167.782 110.463 170.873C110.255 172.074 110.281 172.55 111.282 171.968C114.516 170.089 117.643 165.095 119.606 159.222C120.558 156.372 120.273 153.466 119.978 151.951C119.684 150.437 119.095 150.319 118.439 150.258C117.08 150.133 114.935 151.022 110.851 154.508C107.983 156.956 104.294 161.645 101.114 166.717C97.9349 171.79 95.5798 177.324 94.2488 181.059C92.9178 184.793 92.6823 186.559 92.561 187.705C92.4397 188.85 92.4397 189.321 93.4995 189.446C96.6589 189.818 100.982 187.915 104.783 185.424C108.086 183.259 109.678 179.947 111.104 177.101C112.65 174.015 112.422 170.905 111.775 169.417C110.072 165.504 103.287 173.37 100.417 176.889C99.8389 177.597 99.5835 178.373 99.8137 178.796C101.865 182.564 109.443 175.301 110.335 173.938C110.79 173.242 110.638 172.221 110.167 171.736C109.127 170.664 106.488 171.604 103.407 172.257C99.4364 173.099 94.9589 173.035 91.6296 172.741C90.3895 172.631 90.1844 171.857 90.0631 171.024C89.9418 170.191 89.9418 169.131 90.0596 168.409C90.2417 167.291 94.5414 164.731 100.959 160.871C104.741 158.595 105.878 156.863 106.235 155.796C106.428 155.22 106.356 154.494 105.944 153.659C102.85 147.39 92.5645 146.158 91.7902 145.15C90.4099 143.353 93.032 141.048 92.9767 139.202C92.8399 134.634 80.5534 137.947 75.5363 137.769C71.3457 137.62 63.8071 137.708 59.6892 137.767C54.2362 137.845 52.367 138.779 50.9325 139.785C49.3358 140.905 47.3713 141.983 45.6406 142.998C44.0087 143.956 42.7253 145.43 41.8314 146.981C40.9924 148.436 39.9919 152.074 39.0356 154.888C38.2469 157.208 38.3219 159.704 38.1417 161.846C37.9313 164.348 37.6082 168.146 36.8946 170.94C35.8455 175.047 36.4164 177.538 36.4753 177.622C40.1501 182.856 37.0087 165.549 37.4833 163.889C38.5255 160.246 39.0284 158.533 39.8616 156.214C40.9864 153.083 46.026 152.228 52.7167 150.449C56.8959 149.338 62.8223 148.435 66.3264 147.712C69.8305 146.99 70.7726 146.636 78.4999 145.983C86.2271 145.33 100.711 144.388 107.643 144.08C114.574 143.771 113.514 144.124 109.966 144.659C106.417 145.195 100.411 145.901 95.669 146.265C90.9267 146.629 87.6295 146.629 84.8712 146.806C82.1128 146.982 79.9932 147.336 75.7808 147.518C71.5683 147.7 65.3273 147.7 61.8178 147.523C58.3083 147.346 57.7195 146.993 57.0629 146.458C56.4063 145.923 55.6998 145.216 56.219 144.675C57.9189 142.905 67.272 143.3 71.4987 143.121C74.2179 143.007 56.178 143.061 49.4516 143.12C42.7253 143.179 42.2542 143.296 41.8938 143.593C41.5334 143.889 41.2979 144.36 41.3532 144.779C41.4675 145.645 44.1276 146.504 52.5186 147.514C58.8758 148.279 69.6236 148.171 75.556 148.233C82.3125 148.304 84.2217 148.057 84.7677 148.469C85.2934 148.866 82.1342 149.705 76.9209 151.131C71.7075 152.556 63.4646 154.558 58.2762 155.707C51.2399 157.265 48.7915 157.57 47.1946 158.221C46.0834 158.674 44.3025 159.225 49.9869 159.176C55.6713 159.126 68.8599 158.419 76.0074 157.937C83.1548 157.456 83.8613 157.22 78.3964 158.335C72.9314 159.45 61.2736 161.923 55.8568 163.315C50.44 164.706 51.6176 164.942 55.7569 165.122C59.8962 165.302 66.9616 165.42 68.0695 165.893C71.8983 167.527 56.3064 168.039 52.028 168.098C47.6007 168.159 44.2739 168.514 42.9679 168.692C42.3709 168.774 41.8974 168.753 41.5959 167.163C41.2943 165.574 41.1766 162.394 41.3514 160.756C41.5263 159.118 41.9973 159.118 42.4166 159.06C42.8359 159.001 43.1891 158.883 43.5478 158.94C44.3079 159.061 45.3302 160.417 47.8726 163.434C52.4499 168.866 55.9211 172.318 56.2779 172.5C58.3481 173.556 54.6222 168.164 53.0806 166.978C52.2669 166.351 51.3036 165.791 50.8183 166.96C47.8487 174.111 50.9253 176.361 51.4588 177.016C51.6799 177.287 52.11 177.082 52.5275 176.727C54.622 174.945 55.2074 172.45 56.6865 169.897C59.104 167.005 63.1541 163.654 68.2551 160.746C70.8832 159.368 73.5916 158.191 76.382 156.977" stroke="#2086E6" stroke-width="9" stroke-linecap="round"/>
<path d="M156.686 131.538C157.855 131.538 160.222 131.699 160.812 132.004C161.339 132.277 161.93 132.472 162.418 132.736C162.924 133.009 163.516 133.204 164.106 133.387C164.673 133.563 165.102 133.856 165.59 133.997C165.722 134.035 165.834 134.139 165.836 134.12C165.884 133.621 164.904 133.451 164.273 133.044C163.752 132.708 163.074 132.433 162.24 132.048C161.685 131.791 161.203 131.621 160.613 131.497C160.06 131.382 159.536 131.091 157.921 130.969C156.631 130.872 154.373 130.928 153.131 130.948C151.28 131.05 150.587 131.09 150.264 131.151C150.06 131.172 149.779 131.172 149.488 131.172" stroke="#2086E6" stroke-width="2" stroke-linecap="round"/>
<path d="M145.496 229.487C145.596 230.388 146.198 232.402 146.754 233.967C147.339 235.613 149.318 237.24 151.534 238.905C154.949 241.472 158.687 241.577 160.359 242.236C161.132 242.541 161.823 242.892 162.277 243.343C162.959 244.021 162.231 245.408 161.779 246.264C161.575 246.651 161.227 246.821 160.923 246.973C160.619 247.126 160.32 247.226 160.066 247.078C159.207 245.82 158.702 244.912 158.451 244.159C158.3 243.706 158.1 243.107 157.895 241.885" stroke="#2086E6" stroke-width="2" stroke-linecap="round"/>
<path d="M173.921 237.954C170.819 237.954 166.062 238.054 165.459 238.405C165.118 238.603 164.855 239.055 165.1 239.36C165.345 239.666 166.143 239.865 166.704 239.968C167.265 240.071 167.565 240.071 168.118 239.672C168.672 239.273 169.47 238.474 169.881 237.913C170.292 237.352 170.292 237.053 170.043 236.699C168.826 234.974 165.871 235.136 163.95 234.731C162.368 234.397 160.724 233.421 157.868 232.568C152.58 230.989 148.026 230.294 146.164 230.093C145.396 230.01 144.999 229.892 146.191 231.088C153.194 238.118 154.864 239.46 155.774 240.971C157.306 243.513 157.588 245.106 158.341 245.912C159.112 246.736 161.907 246.322 165.229 246.071C170.884 245.643 177.532 245.315 180.113 244.66C184.256 243.609 191.455 244.105 193.567 243.751C194.364 243.618 195.471 243.7 195.637 243.7C196.269 243.7 193.883 243.6 193.13 243.199C190.768 241.942 190.354 239.775 189.349 238.264C187.717 235.813 187.433 234.331 186.575 232.969C185.842 231.803 179.516 232.208 175.291 232.459C172.31 232.637 169.899 233.116 167.631 233.717C163.874 234.714 161.226 235.332 160.219 235.633C159.783 235.764 159.612 236.134 159.509 236.637C159.406 237.141 159.406 237.839 159.606 238.349C160.285 240.083 163.222 239.968 173.379 239.77C176.463 239.71 179.443 238.765 183.688 237.454C184.194 237.297 183.907 237.646 183.753 238C183.598 238.353 183.598 238.753 182.85 239.108C179.057 240.909 177.357 240.47 175.692 240.726C173.91 240.999 172.319 241.281 170.099 241.932C167.154 242.797 164.553 246.113 163.342 246.973C162.156 247.816 159.92 247.528 158.051 247.781C157.668 247.833 157.495 248.23 157.242 248.284C156.027 248.546 154.979 246.228 153.113 244.362C151.643 242.892 150.945 241.589 149.883 240.629C149.458 240.245 149.13 239.569 148.17 238.613C147.057 237.506 145.804 236.545 144.593 235.639C143.538 234.851 142.078 233.327 140.711 232.162C139.613 231.225 138.848 229.795 137.838 228.534C137.137 227.781 136.526 227.071 136.174 226.467C136.021 226.163 135.921 225.864 135.818 225.253" stroke="#2086E6" stroke-width="8" stroke-linecap="round"/>
<path d="M157.592 247.934C157.592 248.033 157.592 248.133 165.675 248.185C173.758 248.236 189.925 248.236 198.103 248.136C206.282 248.036 205.983 247.837 205.729 247.584C204.715 246.577 203.763 245.52 202.705 244.56C201.542 243.505 200.237 241.994 198.775 240.73C197.576 239.694 196.505 238.565 193.891 235.898C192.55 234.529 191.364 233.727 190.357 232.366C188.471 229.817 186.526 228.283 185.467 227.323C185.213 227.071 185.014 226.771 184.761 226.517C184.509 226.263 184.209 226.064 183.599 225.556" stroke="#2086E6" stroke-width="8" stroke-linecap="round"/>
<path d="M73.6234 91.4319C72.7726 91.9419 70.9017 93.641 68.7195 96.3767C66.8865 98.6747 65.3405 100.053 64.0182 101.422C63.5466 102.103 63.2878 102.79 63.0751 103.472C62.9469 103.815 62.7778 104.153 62.6035 105.015" stroke="#2086E6" stroke-width="8" stroke-linecap="round"/>
<path d="M65.6782 93.9946C65.3374 94.2483 64.8274 95.44 64.4404 96.5958C63.9927 97.933 64.9914 99.3713 65.9294 101.415C66.3585 102.35 67.0314 103.79 67.549 104.615C69.2503 107.327 76.6725 105.445 78.7867 105.016C80.0722 104.755 81.2188 104.077 82.29 102.757C83.5341 101.224 83.5304 98.869 84.2121 97.8426C85.0844 96.5293 86.0086 96.0474 86.2636 95.7476C86.378 95.6131 86.6877 95.8706 86.903 96.3383C88.3995 99.5896 87.6308 103.641 88.0588 105.818C88.1505 106.284 87.8922 106.547 87.1708 106.678C83.5875 107.327 82.5104 106.98 81.9133 106.598C80.1285 105.457 80.8856 102.544 80.8831 98.6653C80.8824 97.5582 81.3111 96.6496 81.2265 95.4977C81.1911 95.0161 80.9728 94.7686 80.7588 94.5533C80.332 94.1239 79.3531 93.9946 78.2012 94.0369C76.3386 94.1053 74.0584 96.378 73.1551 97.8336C72.7783 98.4407 72.854 99.625 72.6425 100.947C72.3265 102.924 70.2963 103.303 68.4191 104.326C67.5173 104.818 67.3876 105.781 67.2594 106.588C67.1724 107.136 67.2159 107.987 68.273 107.958C74.8656 107.774 76.3496 103.057 77.3349 101.647C78.2369 100.357 78.492 99.0381 78.7457 98.4833C81.2983 98.687 84.1275 100.058 84.6388 100.357C84.8964 100.486 85.1501 100.571 85.4115 100.658" stroke="#2086E6" stroke-width="8" stroke-linecap="round"/>
<path d="M159.844 130.77C159.986 130.829 160.151 130.9 160.399 130.923C160.635 130.946 160.885 131.065 161.092 131.101C161.36 131.147 161.701 131.314 162.152 131.432C162.4 131.498 162.59 131.563 162.798 131.628C163.161 131.742 163.36 131.776 163.509 131.835C163.674 131.902 163.963 131.977 164.336 132.101C164.996 132.321 165.313 132.427 165.534 132.569C165.783 132.731 166.167 132.842 166.339 132.966C166.479 133.067 166.653 133.126 166.807 133.191C166.961 133.257 167.091 133.375 167.233 133.44C167.424 133.528 167.647 133.671 167.802 133.748C167.951 133.822 168.145 133.907 168.299 134.002C168.44 134.089 168.583 134.133 168.731 134.221C168.922 134.335 169.081 134.44 169.223 134.506C169.384 134.58 169.542 134.689 169.626 134.813C169.741 134.985 170.028 135.08 170.2 135.169C170.476 135.311 170.573 135.494 170.756 135.613C170.981 135.758 171.165 135.932 171.348 136.057C171.735 136.32 172.088 136.537 172.249 136.631C172.423 136.735 172.586 136.88 172.817 137.04C173.034 137.245 173.284 137.46 173.485 137.608C173.569 137.674 173.616 137.72 173.665 137.769" stroke="#2086E6" stroke-linecap="round"/>
<path d="M134.742 228.549C135.008 228.814 135.453 229.347 136.142 230.104C136.728 230.747 137.322 231.484 137.59 231.997C137.86 232.514 138.345 232.865 138.636 233.354C138.947 233.877 139.192 234.422 139.77 235.09C140.281 235.68 140.527 236.291 140.928 236.826C141.438 237.507 142.261 238.204 142.753 238.829C143.151 239.334 143.465 239.897 143.933 240.321C144.4 240.745 144.801 241.233 145.157 241.767C145.509 242.295 146.003 242.702 146.47 243.126C146.962 243.572 147.514 244.259 148.272 245.016C149.142 245.886 149.696 246.307 150.231 246.709C150.745 247.095 151.299 247.421 151.723 247.91C152.209 248.471 152.902 248.756 153.414 249.246C153.541 249.367 153.615 249.512 153.594 249.558C153.383 250.028 152.506 248.716 151.883 248.071C151.387 247.557 151.08 247.113 150.968 246.978C151.079 247.421 151.256 247.911 151.456 248.133C151.567 248.224 151.7 248.268 151.836 248.58" stroke="#2086E6" stroke-linecap="round"/>
<path d="M148.96 29.4008C149.053 26.5942 152.606 25.4422 154.328 27.6603L162.529 38.2235C163.304 39.2219 164.622 39.6274 165.824 39.2376L179.111 34.9296C181.948 34.0098 184.243 37.3439 182.372 39.666L174.324 49.6506C173.451 50.7335 173.437 52.2743 174.29 53.3729L181.918 63.1978C183.684 65.473 181.541 68.6879 178.761 67.9326L164.926 64.1727C163.776 63.8604 162.551 64.2577 161.803 65.1851L152.806 76.348C150.998 78.5906 147.376 77.2449 147.472 74.3662L147.883 61.9348C147.929 60.5447 147.014 59.3052 145.672 58.9405L133.296 55.5776C130.418 54.7955 130.321 50.7486 133.158 49.8288L146.445 45.5208C147.647 45.131 148.476 44.0295 148.518 42.7663L148.96 29.4008Z" fill="#FFD998"/>
<path d="M66.4264 290.246C68.3544 288.204 71.7798 289.694 71.6014 292.496L70.752 305.842C70.6717 307.103 71.3906 308.279 72.5496 308.784L85.3588 314.354C88.0938 315.543 87.6062 319.561 84.6661 320.062L72.0241 322.215C70.6529 322.449 69.6221 323.594 69.5338 324.982L68.7437 337.395C68.5608 340.27 64.8259 341.259 63.2433 338.853L55.3651 326.874C54.7106 325.879 53.5292 325.365 52.3549 325.565L38.221 327.972C35.3816 328.456 33.5586 325.049 35.5362 322.955L44.0763 313.912C45.0312 312.901 45.1659 311.366 44.4017 310.204L37.3551 299.489C35.7164 296.997 38.323 293.9 41.058 295.089L53.8671 300.659C55.0262 301.163 56.3768 300.887 57.2446 299.968L66.4264 290.246Z" fill="#FFD998"/>
</svg>
