<svg width="240" height="360" viewBox="0 0 240 360" fill="none" xmlns="http://www.w3.org/2000/svg">
<rect width="240" height="360" fill="white"/>
<rect x="20.5" y="41.5" width="199" height="45" rx="22.5" fill="white" stroke="#2086E6"/>
<rect x="20.5" y="157.5" width="199" height="45" rx="22.5" fill="#2086E6" stroke="#2086E6"/>
<rect x="20.5" y="273.5" width="199" height="45" rx="22.5" fill="#2086E6" stroke="#2086E6"/>
<path d="M67.28 70V58.64H69.072V68.416H75.168V70H67.28ZM80.066 70.16C79.4047 70.16 78.8127 70.048 78.29 69.824C77.7673 69.5893 77.314 69.2693 76.93 68.864C76.5567 68.4587 76.2687 68 76.066 67.488C75.8633 66.9653 75.762 66.4107 75.762 65.824C75.762 65.2373 75.8633 64.6827 76.066 64.16C76.2687 63.6373 76.5567 63.1787 76.93 62.784C77.314 62.3787 77.7673 62.064 78.29 61.84C78.8233 61.6053 79.4153 61.488 80.066 61.488C80.7167 61.488 81.3033 61.6053 81.826 61.84C82.3593 62.064 82.8127 62.3787 83.186 62.784C83.57 63.1787 83.8633 63.6373 84.066 64.16C84.2687 64.6827 84.37 65.2373 84.37 65.824C84.37 66.4107 84.2687 66.9653 84.066 67.488C83.8633 68 83.57 68.4587 83.186 68.864C82.8127 69.2693 82.3593 69.5893 81.826 69.824C81.3033 70.048 80.7167 70.16 80.066 70.16ZM77.57 65.84C77.57 66.3733 77.682 66.8533 77.906 67.28C78.13 67.7067 78.4287 68.0427 78.802 68.288C79.1753 68.5333 79.5967 68.656 80.066 68.656C80.5247 68.656 80.9407 68.5333 81.314 68.288C81.698 68.032 82.002 67.6907 82.226 67.264C82.45 66.8267 82.562 66.3467 82.562 65.824C82.562 65.2907 82.45 64.8107 82.226 64.384C82.002 63.9573 81.698 63.6213 81.314 63.376C80.9407 63.12 80.5247 62.992 80.066 62.992C79.5967 62.992 79.1753 63.12 78.802 63.376C78.4287 63.632 78.13 63.9733 77.906 64.4C77.682 64.816 77.57 65.296 77.57 65.84ZM89.243 70.08C88.6777 70.08 88.1603 69.968 87.691 69.744C87.2217 69.5093 86.8163 69.1947 86.475 68.8C86.1443 68.4053 85.883 67.952 85.691 67.44C85.5097 66.928 85.419 66.3893 85.419 65.824C85.419 65.2267 85.515 64.6667 85.707 64.144C85.899 63.6213 86.1657 63.1627 86.507 62.768C86.859 62.3627 87.2697 62.048 87.739 61.824C88.2083 61.6 88.731 61.488 89.307 61.488C89.979 61.488 90.5657 61.648 91.067 61.968C91.579 62.288 92.0003 62.704 92.331 63.216V61.632H93.883V69.76C93.883 70.5707 93.6857 71.2587 93.291 71.824C92.907 72.3893 92.379 72.8213 91.707 73.12C91.035 73.4187 90.2777 73.568 89.435 73.568C88.507 73.568 87.739 73.408 87.131 73.088C86.523 72.768 86.0057 72.3307 85.579 71.776L86.571 70.848C86.891 71.296 87.3017 71.6373 87.803 71.872C88.315 72.1067 88.859 72.224 89.435 72.224C89.915 72.224 90.3577 72.1333 90.763 71.952C91.179 71.7813 91.5097 71.5093 91.755 71.136C92.0003 70.7733 92.123 70.3147 92.123 69.76V68.48C91.8243 68.9813 91.4137 69.376 90.891 69.664C90.3683 69.9413 89.819 70.08 89.243 70.08ZM89.819 68.656C90.0857 68.656 90.3417 68.6133 90.587 68.528C90.8323 68.432 91.0563 68.3093 91.259 68.16C91.4723 68 91.6537 67.824 91.803 67.632C91.9523 67.4293 92.059 67.216 92.123 66.992V64.8C91.9843 64.4373 91.787 64.1227 91.531 63.856C91.275 63.5787 90.987 63.3653 90.667 63.216C90.347 63.0667 90.0217 62.992 89.691 62.992C89.307 62.992 88.9603 63.0773 88.651 63.248C88.3523 63.408 88.0963 63.6267 87.883 63.904C87.6697 64.1707 87.5043 64.4747 87.387 64.816C87.2697 65.1573 87.211 65.5093 87.211 65.872C87.211 66.256 87.275 66.6133 87.403 66.944C87.5417 67.2747 87.7283 67.5733 87.963 67.84C88.1977 68.096 88.475 68.2987 88.795 68.448C89.115 68.5867 89.4563 68.656 89.819 68.656ZM104.699 70.16C104.027 70.16 103.435 70 102.923 69.68C102.411 69.36 102.005 68.944 101.707 68.432V73.408H99.9466V61.632H101.499V63.136C101.819 62.6347 102.235 62.2347 102.747 61.936C103.259 61.6373 103.829 61.488 104.459 61.488C105.035 61.488 105.563 61.6053 106.043 61.84C106.523 62.064 106.939 62.3787 107.291 62.784C107.643 63.1893 107.915 63.6533 108.107 64.176C108.309 64.688 108.411 65.232 108.411 65.808C108.411 66.608 108.251 67.3387 107.931 68C107.621 68.6613 107.184 69.1893 106.619 69.584C106.064 69.968 105.424 70.16 104.699 70.16ZM104.123 68.656C104.496 68.656 104.832 68.576 105.131 68.416C105.44 68.256 105.701 68.0427 105.915 67.776C106.139 67.5093 106.309 67.2053 106.427 66.864C106.544 66.5227 106.603 66.1707 106.603 65.808C106.603 65.424 106.539 65.0613 106.411 64.72C106.283 64.3787 106.096 64.08 105.851 63.824C105.616 63.568 105.339 63.3653 105.019 63.216C104.709 63.0667 104.368 62.992 103.995 62.992C103.771 62.992 103.536 63.0347 103.291 63.12C103.045 63.2053 102.816 63.3227 102.603 63.472C102.389 63.6213 102.203 63.7973 102.043 64C101.883 64.2027 101.771 64.416 101.707 64.64V66.832C101.856 67.1733 102.053 67.4827 102.299 67.76C102.544 68.0267 102.827 68.2453 103.147 68.416C103.467 68.576 103.792 68.656 104.123 68.656ZM109.386 67.552C109.386 67.0187 109.535 66.5547 109.834 66.16C110.143 65.7547 110.564 65.4453 111.098 65.232C111.631 65.008 112.25 64.896 112.954 64.896C113.327 64.896 113.706 64.9227 114.09 64.976C114.484 65.0293 114.831 65.1147 115.13 65.232V64.704C115.13 64.1173 114.954 63.6587 114.602 63.328C114.25 62.9973 113.743 62.832 113.082 62.832C112.612 62.832 112.17 62.9173 111.754 63.088C111.338 63.248 110.895 63.4773 110.426 63.776L109.834 62.592C110.388 62.2187 110.943 61.9413 111.498 61.76C112.063 61.5787 112.655 61.488 113.274 61.488C114.394 61.488 115.274 61.7867 115.914 62.384C116.564 62.9707 116.89 63.808 116.89 64.896V68.016C116.89 68.2187 116.922 68.3627 116.986 68.448C117.06 68.5333 117.183 68.5813 117.354 68.592V70C117.194 70.032 117.05 70.0533 116.922 70.064C116.794 70.0747 116.687 70.08 116.602 70.08C116.228 70.08 115.946 69.9893 115.754 69.808C115.562 69.6267 115.45 69.4133 115.418 69.168L115.37 68.688C115.007 69.1573 114.543 69.52 113.978 69.776C113.412 70.032 112.842 70.16 112.266 70.16C111.711 70.16 111.215 70.048 110.778 69.824C110.34 69.5893 109.999 69.2747 109.754 68.88C109.508 68.4853 109.386 68.0427 109.386 67.552ZM114.714 68.064C114.842 67.9253 114.943 67.7867 115.018 67.648C115.092 67.5093 115.13 67.3867 115.13 67.28V66.32C114.831 66.2027 114.516 66.1173 114.186 66.064C113.855 66 113.53 65.968 113.21 65.968C112.57 65.968 112.047 66.096 111.642 66.352C111.247 66.608 111.049 66.96 111.049 67.408C111.049 67.6533 111.114 67.888 111.242 68.112C111.38 68.336 111.572 68.5173 111.818 68.656C112.074 68.7947 112.388 68.864 112.762 68.864C113.146 68.864 113.514 68.7893 113.866 68.64C114.218 68.4907 114.5 68.2987 114.714 68.064ZM111.658 59.44C111.658 59.0027 111.807 58.656 112.106 58.4C112.404 58.1333 112.783 58 113.242 58C113.722 58 114.106 58.1333 114.394 58.4C114.692 58.656 114.842 59.0027 114.842 59.44C114.842 59.8667 114.692 60.208 114.394 60.464C114.106 60.7093 113.722 60.832 113.242 60.832C112.783 60.832 112.404 60.7093 112.106 60.464C111.807 60.208 111.658 59.8667 111.658 59.44ZM113.258 58.704C113.055 58.704 112.879 58.768 112.73 58.896C112.591 59.024 112.522 59.2 112.522 59.424C112.522 59.6267 112.591 59.8027 112.73 59.952C112.868 60.0907 113.044 60.16 113.258 60.16C113.45 60.16 113.62 60.0907 113.77 59.952C113.919 59.8133 113.994 59.6427 113.994 59.44C113.994 59.2053 113.919 59.024 113.77 58.896C113.631 58.768 113.46 58.704 113.258 58.704Z" fill="#2086E6"/>
<rect x="160.5" y="61.5" width="23" height="16" rx="3.5" fill="white" stroke="#2086E6" stroke-width="3" stroke-linecap="round"/>
<path d="M181 54.7238C179.978 52.5798 178.364 50.887 176.411 49.9126C174.458 48.9381 172.278 48.7375 170.214 49.3423C168.151 49.9471 166.322 51.323 165.015 53.2528C163.709 55.1826 163 57.5565 163 60H163.383" stroke="#2086E6" stroke-width="3" stroke-linecap="round"/>
<path d="M67.28 186V174.64H69.072V184.416H75.168V186H67.28ZM80.066 186.16C79.4047 186.16 78.8127 186.048 78.29 185.824C77.7673 185.589 77.314 185.269 76.93 184.864C76.5567 184.459 76.2687 184 76.066 183.488C75.8633 182.965 75.762 182.411 75.762 181.824C75.762 181.237 75.8633 180.683 76.066 180.16C76.2687 179.637 76.5567 179.179 76.93 178.784C77.314 178.379 77.7673 178.064 78.29 177.84C78.8233 177.605 79.4153 177.488 80.066 177.488C80.7167 177.488 81.3033 177.605 81.826 177.84C82.3593 178.064 82.8127 178.379 83.186 178.784C83.57 179.179 83.8633 179.637 84.066 180.16C84.2687 180.683 84.37 181.237 84.37 181.824C84.37 182.411 84.2687 182.965 84.066 183.488C83.8633 184 83.57 184.459 83.186 184.864C82.8127 185.269 82.3593 185.589 81.826 185.824C81.3033 186.048 80.7167 186.16 80.066 186.16ZM77.57 181.84C77.57 182.373 77.682 182.853 77.906 183.28C78.13 183.707 78.4287 184.043 78.802 184.288C79.1753 184.533 79.5967 184.656 80.066 184.656C80.5247 184.656 80.9407 184.533 81.314 184.288C81.698 184.032 82.002 183.691 82.226 183.264C82.45 182.827 82.562 182.347 82.562 181.824C82.562 181.291 82.45 180.811 82.226 180.384C82.002 179.957 81.698 179.621 81.314 179.376C80.9407 179.12 80.5247 178.992 80.066 178.992C79.5967 178.992 79.1753 179.12 78.802 179.376C78.4287 179.632 78.13 179.973 77.906 180.4C77.682 180.816 77.57 181.296 77.57 181.84ZM89.243 186.08C88.6777 186.08 88.1603 185.968 87.691 185.744C87.2217 185.509 86.8163 185.195 86.475 184.8C86.1443 184.405 85.883 183.952 85.691 183.44C85.5097 182.928 85.419 182.389 85.419 181.824C85.419 181.227 85.515 180.667 85.707 180.144C85.899 179.621 86.1657 179.163 86.507 178.768C86.859 178.363 87.2697 178.048 87.739 177.824C88.2083 177.6 88.731 177.488 89.307 177.488C89.979 177.488 90.5657 177.648 91.067 177.968C91.579 178.288 92.0003 178.704 92.331 179.216V177.632H93.883V185.76C93.883 186.571 93.6857 187.259 93.291 187.824C92.907 188.389 92.379 188.821 91.707 189.12C91.035 189.419 90.2777 189.568 89.435 189.568C88.507 189.568 87.739 189.408 87.131 189.088C86.523 188.768 86.0057 188.331 85.579 187.776L86.571 186.848C86.891 187.296 87.3017 187.637 87.803 187.872C88.315 188.107 88.859 188.224 89.435 188.224C89.915 188.224 90.3577 188.133 90.763 187.952C91.179 187.781 91.5097 187.509 91.755 187.136C92.0003 186.773 92.123 186.315 92.123 185.76V184.48C91.8243 184.981 91.4137 185.376 90.891 185.664C90.3683 185.941 89.819 186.08 89.243 186.08ZM89.819 184.656C90.0857 184.656 90.3417 184.613 90.587 184.528C90.8323 184.432 91.0563 184.309 91.259 184.16C91.4723 184 91.6537 183.824 91.803 183.632C91.9523 183.429 92.059 183.216 92.123 182.992V180.8C91.9843 180.437 91.787 180.123 91.531 179.856C91.275 179.579 90.987 179.365 90.667 179.216C90.347 179.067 90.0217 178.992 89.691 178.992C89.307 178.992 88.9603 179.077 88.651 179.248C88.3523 179.408 88.0963 179.627 87.883 179.904C87.6697 180.171 87.5043 180.475 87.387 180.816C87.2697 181.157 87.211 181.509 87.211 181.872C87.211 182.256 87.275 182.613 87.403 182.944C87.5417 183.275 87.7283 183.573 87.963 183.84C88.1977 184.096 88.475 184.299 88.795 184.448C89.115 184.587 89.4563 184.656 89.819 184.656ZM104.699 186.16C104.027 186.16 103.435 186 102.923 185.68C102.411 185.36 102.005 184.944 101.707 184.432V189.408H99.9466V177.632H101.499V179.136C101.819 178.635 102.235 178.235 102.747 177.936C103.259 177.637 103.829 177.488 104.459 177.488C105.035 177.488 105.563 177.605 106.043 177.84C106.523 178.064 106.939 178.379 107.291 178.784C107.643 179.189 107.915 179.653 108.107 180.176C108.309 180.688 108.411 181.232 108.411 181.808C108.411 182.608 108.251 183.339 107.931 184C107.621 184.661 107.184 185.189 106.619 185.584C106.064 185.968 105.424 186.16 104.699 186.16ZM104.123 184.656C104.496 184.656 104.832 184.576 105.131 184.416C105.44 184.256 105.701 184.043 105.915 183.776C106.139 183.509 106.309 183.205 106.427 182.864C106.544 182.523 106.603 182.171 106.603 181.808C106.603 181.424 106.539 181.061 106.411 180.72C106.283 180.379 106.096 180.08 105.851 179.824C105.616 179.568 105.339 179.365 105.019 179.216C104.709 179.067 104.368 178.992 103.995 178.992C103.771 178.992 103.536 179.035 103.291 179.12C103.045 179.205 102.816 179.323 102.603 179.472C102.389 179.621 102.203 179.797 102.043 180C101.883 180.203 101.771 180.416 101.707 180.64V182.832C101.856 183.173 102.053 183.483 102.299 183.76C102.544 184.027 102.827 184.245 103.147 184.416C103.467 184.576 103.792 184.656 104.123 184.656ZM109.386 183.552C109.386 183.019 109.535 182.555 109.834 182.16C110.143 181.755 110.564 181.445 111.098 181.232C111.631 181.008 112.25 180.896 112.954 180.896C113.327 180.896 113.706 180.923 114.09 180.976C114.484 181.029 114.831 181.115 115.13 181.232V180.704C115.13 180.117 114.954 179.659 114.602 179.328C114.25 178.997 113.743 178.832 113.082 178.832C112.612 178.832 112.17 178.917 111.754 179.088C111.338 179.248 110.895 179.477 110.426 179.776L109.834 178.592C110.388 178.219 110.943 177.941 111.498 177.76C112.063 177.579 112.655 177.488 113.274 177.488C114.394 177.488 115.274 177.787 115.914 178.384C116.564 178.971 116.89 179.808 116.89 180.896V184.016C116.89 184.219 116.922 184.363 116.986 184.448C117.06 184.533 117.183 184.581 117.354 184.592V186C117.194 186.032 117.05 186.053 116.922 186.064C116.794 186.075 116.687 186.08 116.602 186.08C116.228 186.08 115.946 185.989 115.754 185.808C115.562 185.627 115.45 185.413 115.418 185.168L115.37 184.688C115.007 185.157 114.543 185.52 113.978 185.776C113.412 186.032 112.842 186.16 112.266 186.16C111.711 186.16 111.215 186.048 110.778 185.824C110.34 185.589 109.999 185.275 109.754 184.88C109.508 184.485 109.386 184.043 109.386 183.552ZM114.714 184.064C114.842 183.925 114.943 183.787 115.018 183.648C115.092 183.509 115.13 183.387 115.13 183.28V182.32C114.831 182.203 114.516 182.117 114.186 182.064C113.855 182 113.53 181.968 113.21 181.968C112.57 181.968 112.047 182.096 111.642 182.352C111.247 182.608 111.049 182.96 111.049 183.408C111.049 183.653 111.114 183.888 111.242 184.112C111.38 184.336 111.572 184.517 111.818 184.656C112.074 184.795 112.388 184.864 112.762 184.864C113.146 184.864 113.514 184.789 113.866 184.64C114.218 184.491 114.5 184.299 114.714 184.064ZM111.658 175.44C111.658 175.003 111.807 174.656 112.106 174.4C112.404 174.133 112.783 174 113.242 174C113.722 174 114.106 174.133 114.394 174.4C114.692 174.656 114.842 175.003 114.842 175.44C114.842 175.867 114.692 176.208 114.394 176.464C114.106 176.709 113.722 176.832 113.242 176.832C112.783 176.832 112.404 176.709 112.106 176.464C111.807 176.208 111.658 175.867 111.658 175.44ZM113.258 174.704C113.055 174.704 112.879 174.768 112.73 174.896C112.591 175.024 112.522 175.2 112.522 175.424C112.522 175.627 112.591 175.803 112.73 175.952C112.868 176.091 113.044 176.16 113.258 176.16C113.45 176.16 113.62 176.091 113.77 175.952C113.919 175.813 113.994 175.643 113.994 175.44C113.994 175.205 113.919 175.024 113.77 174.896C113.631 174.768 113.46 174.704 113.258 174.704Z" fill="white"/>
<rect x="160.5" y="177.5" width="23" height="16" rx="3.5" fill="#2086E6" stroke="white" stroke-width="3" stroke-linecap="round"/>
<path d="M181 170.724C179.978 168.58 178.364 166.887 176.411 165.913C174.458 164.938 172.278 164.737 170.214 165.342C168.151 165.947 166.322 167.323 165.015 169.253C163.709 171.183 163 173.557 163 176H163.383" stroke="white" stroke-width="3" stroke-linecap="round"/>
<path d="M110 300L121 310.5L136 283" stroke="white" stroke-width="3" stroke-linecap="round"/>
<path d="M138.743 218L137 187L163 204.302L151.816 206.177L156.173 215.116L151.816 217.279L146.877 208.628L138.743 218Z" fill="white" stroke="black" stroke-width="2" stroke-linecap="round" stroke-linejoin="round"/>
</svg>
