<svg width="240" height="360" viewBox="0 0 240 360" fill="none" xmlns="http://www.w3.org/2000/svg">
<rect width="240" height="360" fill="white"/>
<rect x="20" y="36" width="200" height="129" rx="15" fill="#E31F28"/>
<path d="M131.485 36H197L107.515 165H42L131.485 36Z" fill="#F93039"/>
<rect x="20" y="195" width="200" height="129" rx="15" fill="#2086E6"/>
<path d="M131.485 195H197L107.515 324H42L131.485 195Z" fill="#2C92F2"/>
<path d="M184.091 134.201C178.638 134.201 174.201 138.638 174.201 144.09C174.201 149.542 178.638 153.98 184.091 153.98H197.411C202.864 153.98 207.299 149.544 207.299 144.09C207.299 138.636 202.864 134.201 197.411 134.201H184.092H184.091Z" fill="white"/>
<path d="M197.411 154.181H184.091C178.526 154.181 174 149.654 174 144.09C174 138.526 178.526 134 184.091 134H197.41C202.974 134 207.5 138.526 207.5 144.09C207.5 149.654 202.974 154.181 197.41 154.181M184.091 134.201C178.638 134.201 174.2 138.638 174.2 144.09C174.2 149.542 178.637 153.98 184.091 153.98H197.41C202.863 153.98 207.299 149.544 207.299 144.09C207.299 138.636 202.864 134.201 197.411 134.201H184.091H184.091Z" fill="white"/>
<path d="M199.738 143.486L204.167 148.754C205.085 147.429 205.624 145.821 205.624 144.091C205.624 142.264 205.023 140.574 204.011 139.208L199.738 143.487V143.486Z" fill="#E31F28"/>
<path d="M187.189 138.764C190.496 138.764 192.988 139.605 193.245 142.392L196.726 138.763H203.658C202.15 136.998 199.909 135.877 197.411 135.877H184.092C181.593 135.877 179.352 136.998 177.844 138.763H187.188L187.189 138.764Z" fill="#E31F28"/>
<path d="M181.738 142.276L180.557 145.524H185.322C186.731 145.524 187.158 144.941 187.473 143.818C187.785 142.707 187.001 142.276 186.038 142.276H181.738Z" fill="#E31F28"/>
<path d="M196.753 149.197L193.071 144.544C192.391 147.717 190.162 149.197 185.985 149.197H177.66C179.166 151.089 181.489 152.305 184.09 152.305H197.409C200.01 152.305 202.332 151.09 203.837 149.197H196.753L196.753 149.197Z" fill="#E31F28"/>
<path d="M184.091 295.201C178.638 295.201 174.201 299.638 174.201 305.09C174.201 310.542 178.638 314.98 184.091 314.98H197.411C202.864 314.98 207.299 310.544 207.299 305.09C207.299 299.636 202.864 295.201 197.411 295.201H184.092H184.091Z" fill="white"/>
<path d="M197.411 315.181H184.091C178.526 315.181 174 310.654 174 305.09C174 299.526 178.526 295 184.091 295H197.41C202.974 295 207.5 299.526 207.5 305.09C207.5 310.654 202.974 315.181 197.41 315.181M184.091 295.201C178.638 295.201 174.2 299.638 174.2 305.09C174.2 310.542 178.637 314.98 184.091 314.98H197.41C202.863 314.98 207.299 310.544 207.299 305.09C207.299 299.636 202.864 295.201 197.411 295.201H184.091H184.091Z" fill="white"/>
<path d="M199.738 304.486L204.167 309.754C205.085 308.429 205.624 306.821 205.624 305.091C205.624 303.264 205.023 301.574 204.011 300.208L199.738 304.487V304.486Z" fill="#E31F28"/>
<path d="M187.189 299.764C190.496 299.764 192.988 300.605 193.245 303.392L196.726 299.763H203.658C202.15 297.998 199.909 296.877 197.411 296.877H184.092C181.593 296.877 179.352 297.998 177.844 299.763H187.188L187.189 299.764Z" fill="#E31F28"/>
<path d="M181.738 303.276L180.557 306.524H185.322C186.731 306.524 187.158 305.941 187.473 304.818C187.785 303.707 187.001 303.276 186.038 303.276H181.738Z" fill="#E31F28"/>
<path d="M196.753 310.197L193.071 305.544C192.391 308.717 190.162 310.197 185.985 310.197H177.66C179.166 312.089 181.489 313.305 184.09 313.305H197.409C200.01 313.305 202.332 312.09 203.837 310.197H196.753L196.753 310.197Z" fill="#E31F28"/>
<path d="M115.991 297.133C111.92 297.132 121.707 297.133 121.707 297.133L122.693 308.271L128.452 297.133H132.307L123.253 312.823H120.183C118.826 306.667 120.062 297.133 115.991 297.133Z" fill="white"/>
<path d="M133.888 297.133H137.564L134.18 312.823H130.504L133.888 297.133Z" fill="white"/>
<path d="M142.602 313C141.496 313 140.398 312.831 139.307 312.492C138.217 312.138 137.29 311.659 136.528 311.055L138.814 307.895C138.859 307.969 139.001 308.109 139.24 308.315C139.494 308.506 139.83 308.713 140.249 308.934C140.682 309.14 141.16 309.324 141.683 309.486C142.221 309.648 142.781 309.729 143.364 309.729C143.842 309.729 144.223 309.67 144.507 309.552C144.806 309.435 145.015 309.273 145.134 309.066C145.269 308.845 145.336 308.602 145.336 308.337C145.336 307.998 145.187 307.726 144.888 307.519C144.604 307.313 144.223 307.129 143.745 306.967C143.282 306.805 142.759 306.628 142.176 306.436C141.474 306.186 140.884 305.906 140.406 305.597C139.928 305.287 139.569 304.926 139.33 304.514C139.091 304.087 138.971 303.586 138.971 303.011C138.971 302.053 139.158 301.206 139.532 300.47C139.92 299.718 140.436 299.092 141.078 298.591C141.735 298.076 142.467 297.685 143.274 297.42C144.096 297.14 144.94 297 145.807 297C146.524 297 147.196 297.088 147.824 297.265C148.466 297.442 149.049 297.663 149.572 297.928C150.095 298.193 150.55 298.459 150.939 298.724L148.698 301.729C148.683 301.656 148.563 301.545 148.339 301.398C148.13 301.236 147.846 301.066 147.488 300.89C147.144 300.713 146.755 300.558 146.322 300.425C145.889 300.293 145.448 300.227 145 300.227C144.582 300.227 144.223 300.293 143.924 300.425C143.625 300.543 143.394 300.72 143.229 300.956C143.08 301.177 143.005 301.449 143.005 301.773C143.005 302.053 143.11 302.289 143.319 302.481C143.543 302.657 143.857 302.82 144.26 302.967C144.664 303.099 145.134 303.262 145.672 303.453C146.434 303.689 147.099 303.969 147.667 304.293C148.235 304.602 148.675 304.993 148.989 305.464C149.318 305.921 149.482 306.517 149.482 307.254C149.482 308.3 149.28 309.192 148.877 309.928C148.474 310.665 147.943 311.262 147.286 311.718C146.628 312.16 145.889 312.484 145.067 312.691C144.26 312.897 143.439 313 142.602 313Z" fill="white"/>
<path d="M157.599 297.133H160.938L163 312.823H159.235L158.899 309.309H154.372L152.556 312.823H148.769L157.599 297.133ZM158.832 306.812L158.383 301.265L155.47 306.812H158.832Z" fill="white"/>
<path d="M169 294V317" stroke="white" stroke-linecap="round" stroke-linejoin="round"/>
</svg>
