<svg width="31" height="31" viewBox="0 0 31 31" fill="none" xmlns="http://www.w3.org/2000/svg">
<path d="M15.8778 20.1328V10.6661H18.4778V14.2661L21.3578 10.6661H24.2911L20.8511 14.9061L24.5311 20.1328H21.5445L19.1978 16.6528L18.4778 17.3995V20.1328H15.8778Z" fill="#E21E27"/>
<path d="M6.33352 20.1328V10.6661H9.97352C11.0224 10.6661 11.898 10.8795 12.6002 11.3061C13.3113 11.7239 13.8446 12.2928 14.2002 13.0128C14.5646 13.7239 14.7468 14.515 14.7468 15.3861C14.7468 16.3461 14.5469 17.1817 14.1468 17.8928C13.7557 18.6039 13.2002 19.155 12.4802 19.5461C11.7691 19.9373 10.9335 20.1328 9.97352 20.1328H6.33352ZM12.1068 15.3861C12.1068 14.8973 12.0224 14.4706 11.8535 14.1061C11.6846 13.7328 11.4402 13.4439 11.1202 13.2395C10.8002 13.035 10.418 12.9328 9.97352 12.9328H8.93352V17.8661H9.97352C10.4268 17.8661 10.8091 17.7595 11.1202 17.5461C11.4402 17.3328 11.6846 17.0395 11.8535 16.6661C12.0224 16.2839 12.1068 15.8573 12.1068 15.3861Z" fill="#E21E27"/>
<path d="M27.6667 15.5C27.6667 8.78053 22.2195 3.33333 15.5 3.33333C8.78053 3.33333 3.33333 8.78053 3.33333 15.5C3.33333 22.2195 8.78053 27.6667 15.5 27.6667V31C6.93959 31 0 24.0604 0 15.5C0 6.93959 6.93959 0 15.5 0C24.0604 0 31 6.93959 31 15.5C31 24.0604 24.0604 31 15.5 31V27.6667C22.2195 27.6667 27.6667 22.2195 27.6667 15.5Z" fill="#E21E27"/>
</svg>
