<svg width="347" height="401" viewBox="0 0 347 401" fill="none" xmlns="http://www.w3.org/2000/svg">
<path d="M6.35537 249.186L20.7757 249.078L23.1015 250.598L24.9622 251.412L27.6369 252.987L28.5091 253.204L29.9046 252.932L30.835 251.955L34.6145 247.992L34.7889 247.72L34.8471 247.394L34.6726 247.014L34.3238 246.2L34.2656 245.82L34.6726 245.44L35.196 245.168L35.8356 245.006H36.5333L37.2892 245.494L38.0451 245.766L38.9173 245.929L40.1965 245.657L41.4176 245.168L42.2317 245.06L44.6738 245.657L49.907 249.186L51.1862 249.512L53.6284 248.806L54.8494 248.1V247.286L54.4424 245.168L55.1983 244.028L56.3612 240.391L59.0941 239.088L62.7573 239.413L65.025 241.422L68.0487 245.06L69.0371 245.82L71.6537 245.548L72.4096 244.843L73.3981 244.951L74.0377 243.377L74.4448 242.725L75.1425 242.019L75.7821 241.531L77.1776 241.151L78.3987 240.173L81.8875 236.047L83.9226 232.138L86.7718 231.541L93.8075 233.767L96.1333 235.124L98.0522 236.699L101.832 241.205L102.413 242.128L102.529 242.725L102.762 243.648L103.169 244.788L104.855 246.689L106.774 249.675L107.821 250.924L108.984 251.304L111.658 251.032L113.054 251.304L113.461 252.009L113.228 252.77L112.879 253.53L112.763 254.235L112.879 255.158L113.694 255.647L116.136 255.973L117.822 256.461L118.694 257.222L119.043 258.253L118.985 259.393L118.694 260.751L111.775 260.696L109.972 259.882L109.74 260.371L109.623 260.696L109.565 261.076L109.507 261.674L111.019 262.379L116.426 262.434L117.415 263.031L121.311 266.777L122.067 268.243L122.648 269.546L123.404 270.524L124.858 270.904H132.01L130.789 272.315L126.893 275.193L124.858 277.745L123.811 278.396L122.067 278.613L121.427 279.102L121.311 280.296V281.437L121.02 281.979L116.31 283.065L114.624 284.26L113.577 284.477L112.647 284.314L110.961 283.608L109.972 283.663L110.205 284.151L110.495 284.477L109.449 285.943L106.658 286.812L105.379 287.897L106.716 288.658L108.111 288.549L111.775 287.68L112.472 287.3L113.228 287.083L117.531 289.309L117.822 290.666L117.531 292.35L116.717 293.87L115.671 294.521L113.112 295.01L112.007 295.553L112.414 296.91L113.345 298.756L113.635 299.734L113.403 301.145L112.996 302.177L113.112 303.1L114.624 304.023L115.554 304.837L116.426 305.977L116.659 307.172L115.612 308.149V309.072L116.368 309.886L119.159 314.338L120.09 314.664L120.962 315.479L121.311 317.487L121.02 318.953L120.497 319.822L119.973 320.908L119.741 322.863L119.334 323.786L118.403 324.383L117.182 324.763L116.194 324.871L111.775 324.111L110.786 324.383L110.147 325.034L109.623 325.849L108.984 326.663L107.181 327.695L106.076 328.129L105.088 328.292L104.506 328.835V329.921L105.146 330.789H106.425V331.658L104.216 331.604L103.169 331.821L102.297 332.581L103.053 333.124L103.983 333.287L106.135 333.341L107.123 333.776L108.228 334.861L109.972 337.522L108.053 339.911L106.774 341.051L105.379 341.757L101.948 342.408L100.611 343.331L101.25 345.069L102.181 345.123L106.425 343.494L108.344 343.603L108.984 343.494L109.507 343.114L110.03 342.517L110.67 341.974L111.542 341.757L113.17 342.408L116.136 345.503L117.706 346.752L121.834 347.783L122.823 348.489L123.404 350.281L125.09 359.511L125.265 360.054L125.148 360.434L124.392 360.977H123.288L122.241 360.379L121.369 360.271L120.787 361.791L121.718 362.063L122.59 362.605L123.346 363.311L123.869 364.18L124.16 365.212L124.276 366.623L123.927 367.872L122.881 368.415L122.008 367.926L120.904 365.646L120.264 365.103L117.124 365.32L116.194 365.103L114.74 364.343L114.856 363.854L115.496 363.366L115.612 362.605L114.275 360.814L113.81 359.728L114.333 359.239L116.31 358.479L115.961 357.068L114.159 356.145L112.007 356.742L111.6 357.448L110.612 359.945L109.798 361.302L109.333 362.225L108.984 362.605L108.402 362.768L107.181 362.605L106.658 363.04L105.379 364.451L102.239 366.949L101.25 368.415L100.785 370.967H100.843L100.785 371.021L99.6803 371.347L98.4592 371.238L96.9474 369.881L95.5519 370.207L94.7378 370.858L93.6912 371.13L92.9353 371.835L91.8305 372.053H86.3648L85.0274 371.51L84.5041 370.098L84.2715 368.415L83.9226 367.166L82.6434 366.135L66.7694 362.605L60.8967 360.379L54.9076 359.402L53.1632 359.619L48.0463 361.411L45.3134 361.302L42.6968 360.542L43.2783 358.479L42.6968 357.61L43.7435 354.244L43.1039 351.15L41.8828 348.163L41.185 345.069L41.4758 341.105L42.348 337.848L43.4527 334.861L44.2668 331.658L36.3007 330.301L35.4285 330.409L35.1378 331.441L34.9052 336.164L34.4401 336.762L33.7423 336.925L32.7538 337.902L31.7653 339.259L30.6024 339.911L29.4395 339.694L28.3928 338.336L27.5206 335.296L27.6369 332.364L28.1021 329.378L28.3928 326.229L29.7884 323.84L32.9282 323.406L36.0682 324.274L37.6381 325.794L36.6496 326.066L35.8356 326.663L34.5564 328.292L34.7889 329.704L39.2081 330.301L43.3364 331.224L44.8483 330.627L44.6738 328.292L43.2783 324.111L42.2898 318.899L41.7665 313.633L41.8828 312.221L42.5806 310.484L42.6968 309.452L42.5806 307.878L41.7665 304.783L41.0687 299.245L40.5454 296.584L39.4406 294.25L37.58 292.838L34.9052 292.241L29.9046 292.078L26.2996 291.047L23.2178 288.332L16.4147 278.83L16.4728 277.962L18.1009 277.69V276.876L16.6473 276.333L14.9029 276.224L13.2166 276.604L11.9374 277.69L11.0652 279.428L11.2978 280.568L13.5074 282.794L12.8678 282.957L12.4026 283.283L11.4141 284.477L13.1585 284.803L15.1936 286.052L16.8799 287.897L17.6358 290.015L16.6473 290.341L7.69273 283.391L5.83205 282.36L1.47107 281.599L0.308145 280.514L0.25 278.668L4.43654 268.135L5.83205 263.302L6.76239 258.199L6.93683 253.15L6.35537 249.186ZM176.724 360.108L177.945 361.248L179.341 362.063L180.387 363.203L180.329 365.103L181.027 365.592L181.841 365.917L175.968 367.22L174.34 368.849L173.41 369.229L171.724 368.523L158.815 355.33L157.594 352.561L157.129 350.661L158.234 351.801L164.63 355.167L166.49 356.742L168.235 359.402L169.165 360.488L170.27 360.977L171.375 360.922L172.305 360.651L172.654 359.674L172.131 357.61L173.177 359.076L174.108 362.714L174.922 363.42L176.433 363.474L177.538 363.203L177.713 362.225L176.724 360.108ZM143.813 350.932L144.918 352.833L147.884 361.194L147.825 362.388L146.779 362.66L144.627 362.605L143.523 363.148L142.069 364.234L140.615 365.049L139.511 364.669L138.289 363.637L134.801 362.605L133.58 361.791V360.977L135.557 359.999L137.941 360.977L140.266 362.551L142.36 363.42V362.605L138.755 359.674L135.382 358.533L134.568 358.479L133.87 358.751L132.766 359.728L132.01 360.108L129.102 359.999L126.602 358.045L125.09 354.842L125.323 350.932H124.858V350.172L126.544 351.258L128.288 353.158L130.033 354.57L131.544 354.244L131.254 353.81L130.73 352.996L130.44 352.181L130.73 351.801L131.137 351.53L130.614 350.932L127.532 348.869L127.009 347.892L127.939 346.752V345.883L122.067 346.426L121.02 346.317L120.264 345.774L119.392 345.666L118.578 345.34L118.171 344.254L118.462 343.711L119.857 342.68L120.264 341.757L118.869 341.811L117.647 342.245L116.426 342.463L115.147 341.757V340.834L121.776 337.902L124.392 337.522L127.532 338.065L131.951 343.005L134.336 344.254L137.65 344.743L140.034 346.1L141.953 348.218L143.813 350.932ZM207.018 342.571L207.542 339.151L210.042 333.07L212.949 328.401L214.636 329.161L211.089 344.254L209.635 348.218L205.739 355.547L198.471 378.025L197.773 379.545L196.727 380.034L194.982 380.088L194.052 378.948L192.133 371.781L191.319 370.478L190.33 369.392L188.005 367.601L189.807 367.492L190.97 367.003L191.959 365.972L193.121 364.18L193.819 362.171L194.226 361.574L194.982 362.225L195.331 362.388L197.25 361.791L197.075 360.597L196.727 359.239L196.087 359.728L195.447 359.891L194.808 359.728L194.11 359.239L195.215 356.307L196.785 354.136L200.971 349.575L202.774 348.326L207.018 342.571ZM28.858 305.597L26.9973 306.303L25.0203 304.403L23.3341 301.362L20.9501 295.553L20.4849 292.838L21.2408 291.101L23.7411 290.449L24.0319 294.141L25.2529 294.793L26.8229 294.521L27.8695 295.553V296.965L26.881 299.734L27.1136 300.928L27.6951 302.285L28.2184 304.62L28.858 305.597ZM192.889 340.074H189.516L188.295 340.291L186.9 340.888L185.621 341.865L184.632 343.005L183.295 344.309L181.725 344.091L178.759 342.571L173.759 342.191L172.131 341.757L171.375 341.268L170.793 340.725L170.154 340.291L169.281 340.074L167.421 340.237L166.432 340.182L160.501 336.653L158.35 336.49L157.768 337.413V340.074L156.606 339.259L154.861 337.359L153.582 336.653H152.07L149.221 337.305L147.942 336.653L153.64 332.581L154.687 330.789L153.349 329.052L152.419 327.097L151.431 325.469L150.035 324.871L148.872 325.197L148.058 325.632L147.186 325.957L145.907 325.794L144.22 324.166L143.232 323.786L142.36 324.871L142.592 326.826L145.151 330.518L144.918 332.581L144.511 332.744L141.895 332.31L141.72 331.984L141.836 331.495L141.778 330.789L142.011 330.898L142.243 330.409L142.127 329.378L141.08 326.663L140.906 325.36L141.08 324.057L141.546 322.863L141.429 321.885L140.325 321.234L137.301 320.528L136.371 319.985L135.498 319.279L135.15 318.682L134.975 318.03L134.277 316.945L134.103 316.184L134.277 315.424L134.975 314.338L135.15 313.633L134.975 312.275L134.277 310.104L134.103 309.452L134.336 305.217L133.58 304.674L132.417 304.566L130.265 304.783L129.219 304.403L128.172 303.534L126.369 301.308L127.649 300.874L129.044 300.711L130.265 300.276L131.021 298.919L126.893 297.236L127.532 297.345L129.451 297.236L128.695 295.77L127.358 295.01L124.334 294.63L123.288 294.196L120.787 291.264V290.449L122.764 291.318L124.916 293.055L126.951 294.304L128.928 293.87L121.543 287.68L118.752 287.083L119.334 285.834L120.031 285.291L120.846 285.02L121.834 284.477L124.625 281.111L128.695 280.351L130.033 280.568L130.323 281.274V282.305L131.021 283.663L134.626 285.509L138.522 284.206L145.907 279.428L155.617 276.387L158.931 274.107L160.734 273.51L162.769 273.401L163.351 273.51L163.409 273.89L163.874 275.681L163.932 276.061L164.979 275.681L165.211 274.758L164.979 272.207L166.025 271.935L168.351 272.967L173.526 276.333L174.689 277.69L175.619 279.21L176.259 280.025L176.957 280.351L178.352 280.514L179.573 280.948L181.841 282.468L180.62 281.979H179.457L178.585 282.631L178.236 284.097L178.527 284.64L179.632 285.454L179.806 286.214L179.399 287.246L178.759 287.517L178.003 287.572L177.189 287.897L174.398 291.644L175.619 293.707L178.294 293.598L179.806 290.884L180.62 291.047L185.446 288.712L188.295 287.897L188.586 287.463L188.47 286.649L188.121 285.78L187.772 285.4L187.074 285.237L186.376 284.857L185.737 284.26L185.446 283.663L185.679 282.577L186.609 282.957L187.598 283.934L188.005 284.477L188.935 283.12L188.702 281.165L188.005 278.993L187.481 276.876L187.888 277.473L188.993 278.613L189.051 276.496L188.528 273.455L188.586 272.587L189.982 272.532L192.191 274.867L195.738 280.351L195.854 281.165L195.971 282.251L196.087 283.228L196.494 283.663L196.668 283.934L198.296 285.4L198.762 287.137L198.587 288.115L197.889 288.82L195.738 290.124L192.249 291.535L187.074 291.101L185.795 291.372L184.865 292.078L184.458 293.653L185.155 294.467H186.376L187.481 293.87L187.132 293.218L187.074 292.838L187.598 291.535L189.109 291.915L194.11 293.001L195.273 293.924L202.657 304.023L203.123 305.109L205.041 310.375L205.448 312.384H204.925L204.053 311.081L202.657 310.266L201.436 310.592L200.855 312.818L201.32 314.284L203.297 317.27L203.879 319.116L204.053 321.777L203.879 324.166L203.355 326.229L202.192 328.726L202.018 329.649L201.902 332.092L201.669 332.744L199.808 335.079L199.111 336.545L198.587 337.956L197.948 339.151L196.727 340.074L195.854 340.291L192.889 340.074Z" fill="#3C5D71" fill-opacity="0.41" stroke="white" stroke-width="0.5" stroke-linecap="round" stroke-linejoin="round"/>
<path d="M118.694 260.751L118.985 259.394L119.043 258.254L118.694 257.222L117.822 256.462L116.135 255.973L113.693 255.647L112.879 255.159L112.763 254.236L112.879 253.53L113.228 252.77L113.461 252.01L113.054 251.304L111.658 251.033L108.983 251.304L107.821 250.924L106.774 249.675L104.855 246.689L103.169 244.789L102.762 243.649L102.529 242.726L102.413 242.128L101.831 241.205L98.0519 236.699L96.1331 235.124L93.8072 233.767L86.7715 231.541L83.9223 232.138L81.8872 236.047L78.3984 240.174L77.1774 241.151L75.7819 241.531L75.1423 242.02L74.4445 242.726L74.0375 243.377L73.3979 244.952L72.4094 244.843L71.6535 245.549L69.0369 245.82L68.0484 245.06L65.0248 241.423L62.7571 239.414L59.0939 239.088L56.361 240.391L55.1981 244.029L54.4422 245.169L54.8492 247.286V248.101L53.6281 248.806L51.186 249.512L49.9067 249.187L44.6736 245.657L42.2314 245.06L41.4174 245.169L40.1963 245.657L38.9171 245.929L38.0449 245.766L37.289 245.495L36.5331 245.006H35.8353L35.1957 245.169L34.6724 245.44L34.2654 245.82L34.3235 246.2L34.6724 247.015L34.8468 247.395L34.7887 247.721L34.6142 247.992L30.8347 251.956L29.9044 252.933L28.5089 253.204L27.6367 252.987L24.962 251.413L23.1013 250.598L20.7754 249.078L6.35512 249.187L3.33151 228.664L2.98263 227.415L2.75005 227.143L2.6919 226.546L2.75005 226.003L2.98263 225.732L3.4478 225.84L3.62224 226.166L3.73853 226.492L3.97112 226.655L4.43629 227.306L6.29697 236.862L7.69249 240.174L7.86692 241.585L7.69249 242.78L6.93658 244.463L6.76215 245.875L7.05288 247.558L7.69249 247.938L11.065 246.146L14.6119 243.486L16.2981 242.888L19.2636 240.771L22.2291 237.839L22.6361 235.776L22.1709 233.604L21.1243 231.487L19.9032 229.587L17.1122 226.166V222.311L16.24 217.805L14.3212 214.927L11.7627 213.19L5.9481 210.692L4.37814 210.529L3.73853 211.561L3.79668 216.936L3.68039 219.488L3.21522 222.311L3.50595 224.374L3.27336 225.189L2.16858 224.863L1.87785 224.211L1.52897 222.908L1.23824 221.388L0.94751 212.321L1.18009 209.498L2.98263 201.625L3.21522 198.693L2.34302 154.933L2.6919 152.815L3.21522 150.644L6.58771 139.622L8.09951 136.256L9.20429 134.573L9.66946 134.898L9.96019 136.039L10.658 136.69L10.5998 137.559L8.91356 141.685L8.3321 142.825V143.694L8.79727 144.128L9.32058 144.346L10.658 144.508L10.8905 145.051L11.1813 146.246L11.5883 147.495L12.2279 148.038L15.2515 148.58L16.1237 149.069L15.0189 149.721L15.3097 150.861L15.0771 152.924L15.5422 154.118L16.1819 154.607L16.7633 154.281L16.9959 153.413L16.5307 152.381V151.512L18.9147 150.752L22.578 150.698L25.8923 151.295L27.346 152.815L28.0437 153.033L31.7069 155.856L32.7536 155.367L33.7421 154.281L34.5561 152.87L35.0794 151.512H35.5446L37.8123 157.485L37.8704 158.408L37.5797 158.951L37.696 160.145L38.2193 161.339L39.4404 162.262L40.8941 164.054L41.7662 164.597L43.0455 164.543L47.5809 163.62L48.1042 163.403L48.5112 162.751L48.7438 161.774L48.8601 160.579V158.733L48.9764 157.485L49.4416 154.879L49.7323 154.173L50.1393 153.847L50.3138 153.467L49.9067 152.381L47.5809 150.644L46.825 150.589L46.3017 150.264L45.9528 149.612L45.8365 148.526L45.4876 147.386L44.2084 146.734L44.2665 145.431L45.255 144.563L48.6857 144.346L53.5118 136.69L54.6166 136.039L57.6984 135.116L61.8267 134.953L62.0012 134.681L60.1986 134.03L56.9424 133.921L56.1865 133.215L56.8843 130.989L57.9309 128.98L58.8613 127.895L61.2453 126.212L64.7922 122.954L66.1296 122.628L67.0018 122.791L68.3391 123.443L69.2113 123.605L70.0835 123.388L70.5487 122.845L70.8976 122.248L71.479 121.759L72.8164 121.705L74.5608 122.248L76.0145 123.334L76.6541 124.854L77.1192 127.84L78.1659 129.632L79.3869 130.881L80.2591 132.292L81.2476 135.007L79.2125 135.496L77.0029 138.808L75.0841 139.296V140.219L75.3748 141.359L74.5608 142.5L72.5257 144.508L71.8279 146.3L71.7698 147.875L72.0605 151.947L72.642 153.141L73.863 152.978L75.0841 151.567L76.0726 147.44L77.1774 147.169L78.5147 147.386L79.7358 147.169L79.2706 145.974L78.631 145.486L77.9333 145.649L77.1774 146.246L77.7588 144.834L78.3403 143.857L78.8636 142.771L79.2125 141.034H79.7358L79.2706 143.857L81.2476 144.291L83.9223 143.857L85.6086 144.074L86.5971 144.726L87.76 144.508L88.7485 144.617L89.4463 146.246L89.2137 147.495L87.5274 149.829L86.8297 151.512L87.6437 151.784L87.8182 152.381L87.8763 153.141L88.3415 154.118L89.0974 154.824L90.9581 155.856L91.3069 156.344L91.4814 157.05L91.7721 157.593L92.528 157.648L93.5746 155.53L94.0398 154.879L95.0865 155.802L96.0168 154.824V153.195L94.3306 152.381L92.0047 153.684L91.8303 154.064L91.5395 154.173L90.7255 154.118L90.0859 153.738L90.0277 153.033L90.2603 152.435L90.4929 152.381L90.6092 147.657L91.8303 143.585L92.528 140.002L97.8775 142.5L100.669 143.911L102.529 141.034L101.831 139.242L102.471 137.993L104.622 138.156L105.727 139.296L105.262 142.337L107.355 144.508L115.845 144.617L117.298 145.974L115.38 148.092L114.856 150.861L116.252 151.295L118.694 150.046L122.415 154.01L125.73 153.195L127.707 154.227L128.986 154.498L132.068 154.01L134.568 151.241L137.591 149.612L139.394 149.123L143.871 148.635L148.988 145.594L151.488 142.282L154.977 139.513L157.477 136.907L161.083 137.559L164.222 137.396L166.199 136.256L168.002 135.604L169.397 138.428L169.746 142.608L168.467 146.246L163.408 149.884L159.687 153.793L159.047 154.118L158.524 158.245L158.233 159.385L158.815 160.797L158.466 162.643L157.652 164.326L156.722 165.357L159.047 165.249L159.861 164.597L159.803 159.765L160.036 156.29L160.792 154.607L163.932 152.381L166.432 149.232L167.711 148.418L169.281 149.341L169.514 150.155L169.921 152.87L170.037 153.684L170.328 154.064L172.537 155.856L178.178 158.842L184.283 159.548L202.076 156.887L204.576 157.159L207.018 158.408L208.123 159.656L210.565 163.62L215.217 168.018V168.832L213.472 170.407L212.542 173.338L212.135 176.705L212.077 179.691L211.263 182.46L204.343 191.69L200.855 193.97L199.575 195.653L199.168 197.336L199.343 201.245L198.296 205.1L195.97 205.534L193.354 203.743L191.609 200.811L193.528 200.539L194.284 199.834L194.691 198.259L194.517 196.576L193.761 196.033L192.772 195.87L191.842 195.219L190.039 194.621L188.179 196.739L186.493 199.454L184.109 202.114L184.632 205.046L185.62 208.195L185.969 210.312L185.213 211.235L184.05 211.778L182.771 211.887L181.841 211.561L181.085 210.529L180.329 208.141L179.806 206.892L180.387 206.295L181.666 205.426L182.364 205.209L181.783 203.797L181.143 203.091L178.061 202.223L177.364 202.385L175.677 203.417L173.584 203.797L172.305 202.82L171.142 201.028L169.572 199.128L171.2 198.965L173.7 197.01L175.154 196.522L176.201 197.282L177.48 198.585L178.759 199.074L179.806 197.336L178.526 195.327L178.585 193.753L180.794 189.572H179.806L178.701 189.192L177.712 188.432L176.957 187.455L176.142 186.966L174.224 187.78L173.177 187.02L172.886 188.703L172.479 189.735L171.84 190.278L170.793 190.441L170.212 191.092L168.235 195.219L166.374 197.445L162.362 200.594L160.501 202.983L159.454 205.915L159.978 207.761L161.199 209.444L162.362 212.05L162.885 215.199L162.594 217.642L161.664 219.814L160.269 222.311L162.071 221.497L163.408 221.334L163.757 222.203L161.897 226.166L161.722 227.741L161.838 230.89L161.78 233.116L161.664 234.039L161.373 235.124L159.571 237.296L159.28 238.219H158.931L158.117 238.708L157.245 239.468L156.722 240.228L157.07 240.554L157.652 241.748L157.943 243.051L157.245 243.974L157.012 244.572L156.605 245.223L155.908 245.495L154.977 245.223L154.279 244.626L153.117 242.888L152.826 242.128L152.593 241.205L152.244 240.282L151.547 239.468L150.616 239.142L143.348 239.468L142.359 239.739L141.778 240.5L141.313 241.368L140.789 241.965L138.812 242.726L134.859 242.508L133.056 242.888L134.917 244.897L145.674 247.069L146.43 247.666L146.139 248.969L144.918 251.521L144.278 253.693L144.453 254.616L145.499 254.833H147.476V255.647L144.395 257.331L143.522 258.688L144.336 260.751L144.046 260.968L143.348 261.674L141.604 260.643L133.405 262.923L129.625 264.823L127.416 264.986L122.822 263.303L120.206 261.077L119.508 260.751H118.694ZM184.864 241.151L185.911 239.577L186.493 237.622L186.434 235.505L185.446 233.387L184.05 232.464L182.539 231.867L181.608 230.51L181.841 227.415L182.597 225.786L183.701 224.7L184.69 224.972L185.271 230.184L186.434 232.356L188.121 233.767L190.039 234.31L189.4 235.559L189.051 236.862L189.167 238.219L189.516 239.468L190.795 241.151L191.726 240.662L192.365 239.305L192.889 238.599L193.121 239.414L192.075 241.26L190.039 243.703L189.691 245.929L189.749 250.11L188.993 252.281L186.609 254.399L183.992 253.693L181.957 250.815L181.317 246.255L181.725 243.703L182.48 242.671L183.585 242.128L184.864 241.151ZM256.268 136.69L256.036 134.79L256.908 134.138L263.304 133.487L266.502 132.292V133.27H266.211L265.979 133.433L265.513 134.03L264.176 134.627L263.129 135.93L262.257 137.396L261.385 138.482L260.164 138.971L258.594 138.808L257.198 138.048L256.268 136.69Z" fill="#3C5D71" fill-opacity="0.41" stroke="white" stroke-width="0.5" stroke-linecap="round" stroke-linejoin="round"/>
<path d="M157.477 136.907L154.977 139.513L151.488 142.282L148.988 145.594L143.871 148.634L139.394 149.123L137.591 149.612L134.568 151.241L132.067 154.01L128.986 154.498L127.706 154.227L125.729 153.195L122.415 154.01L118.694 150.046L116.252 151.295L114.856 150.86L115.379 148.092L117.298 145.974L115.845 144.617L107.355 144.508L105.262 142.336L105.727 139.296L104.622 138.156L102.471 137.993L101.831 139.242L102.529 141.033L100.668 143.911L97.8773 142.499L92.5279 140.002L92.4697 139.947L90.9579 136.69L90.2602 135.875L89.8531 135.604L88.3413 135.767L85.3759 137.07L84.62 138.101L82.9919 139.079L81.4219 139.187L80.7242 137.504L81.5963 135.984L85.027 134.029L85.841 131.858L86.2481 130.066L86.0736 129.197L84.2129 128.6L83.457 127.949L82.8174 127.08L82.2941 126.211L81.8871 125.397L81.4801 124.094L81.1893 122.574L81.2475 120.999L81.6545 120.565L83.3989 118.013L83.5733 117.416L83.9222 116.764L83.8641 115.244L83.5152 113.778L83.05 113.126L82.1778 112.964L81.4801 112.529L80.259 111.28L81.6545 108.077L83.05 105.58L84.62 103.462L86.9458 101.236L87.4691 100.965L87.9924 100.747L88.6321 100.693L89.0391 100.313L89.4461 98.4671L89.7368 98.0871L100.843 94.558L103.285 94.6666L112.007 98.0871V99.0644L111.077 99.6616L111.018 100.422L111.6 101.182L112.588 101.67L113.635 101.562L114.333 100.91L117.066 96.8383L118.345 94.5037L119.682 92.712L122.648 91.6804L125.09 90.2145L128.695 91.0832L136.661 90.2145L132.242 86.3054L129.974 85.5453L128.462 84.2965L127.706 84.025L127.067 84.3508L124.45 87.717L122.997 89.1286L121.427 89.8345L120.031 88.8029L118.636 87.5541L117.24 87.8799L114.623 90.2145L111.6 91.409L105.087 91.4633L87.9343 97.2727L86.4806 97.4356L85.027 96.8383L76.6539 90.2145L77.1191 91.8976L76.5376 92.7663L74.0373 93.6893L72.2348 94.9923L71.3044 95.4267L70.0252 95.481L70.4904 94.6666L69.153 93.8522L67.8157 94.1236L66.5364 95.1009L65.3154 96.404L64.0943 96.2954L62.5825 97.707L61.2451 99.2272L60.7218 99.4987L60.0822 97.7613L58.5704 97.1098L56.8841 97.2727L55.6049 98.0871L56.7097 99.173L53.9768 101.562L50.2555 103.408L47.5807 102.702L45.8363 103.028L44.092 103.788L43.2779 104.711L42.8709 107.208L41.8824 108.729L40.6613 109.869L39.731 111.28L39.2658 114.918L39.2077 115.244L39.0914 116.33L38.7425 116.981L38.2192 117.524L35.8352 120.999L34.1489 121.108L33.3349 121.488L32.986 122.193L32.4627 122.736L31.2416 123.171L29.9624 124.039L29.4391 125.723L30.0787 130.066L30.0205 132.075L28.8576 133.269V134.029L31.8812 133.758L32.5208 134.029L33.1023 135.604L32.6371 136.69L31.7068 137.341L30.7183 137.504L29.8461 137.287L28.1017 136.093L27.1132 135.767L26.1829 136.038L24.7292 137.178L23.7407 137.504V138.482L27.3458 137.504L28.3924 137.83L29.9624 139.024L30.7183 139.296L36.0096 137.124L37.1144 137.504L37.2888 138.482L37.1144 140.87V141.956L38.2192 143.639L38.7425 144.888L37.6377 146.734L36.8237 147.603L35.8352 148.037L34.7885 148.2L34.1489 148.58V149.123L35.0793 149.72H33.5675L31.4742 147.929L29.6717 145.594L28.8576 144.074L28.1598 142.174L26.4736 140.653L24.3803 139.622L22.4615 139.296L21.1241 138.59L19.5542 136.961L18.1005 135.007L17.112 133.269L16.298 128.654L15.7747 127.949L14.7862 127.623L12.6929 126.32L11.4137 126.211L12.5185 130.935L12.8674 133.649L12.6929 135.387L11.5881 135.55L11.0067 132.889L10.8904 127.026L11.7626 121.759L13.4488 117.796L26.8806 97.2184L30.8927 93.255L37.1144 84.025L39.4984 81.9076L42.1731 81.9619L48.3948 84.025L51.8836 84.2422L58.6867 82.7763L61.7103 81.3104L65.2572 77.5641L66.5946 76.9669L85.3759 79.573L92.179 78.8129L98.924 76.4239L105.378 72.3519L111.018 66.4339L127.125 38.3641L129.974 34.4007L135.149 28.9713L137.708 24.3021L138.696 23.6505L140.499 21.153L144.162 20.5015L151.023 20.9359L157.768 19.9043L163.932 17.2982L169.223 13.6605L178.352 4.75637L183.352 1.22728L185.388 0.467175L187.655 0.25L189.807 0.738643L191.609 2.15028L187.481 3.56191L183.643 7.091L177.48 16.0494L175.212 23.8677L177.305 29.7857L181.085 35.1608L183.934 41.5131L181.724 47.214L181.783 53.9464L183.352 67.2483L182.073 69.1486L178.236 71.809L176.433 73.9264L173.816 79.1386L172.595 82.6134L171.723 88.2056L169.863 94.3408L168.99 96.404L168.351 97.327L167.769 97.8156L166.955 98.0328L163.408 97.9785L162.304 98.25L160.966 98.63L154.686 94.6666L150.035 89.943L146.953 88.7486L144.453 86.3597L142.592 85.8167L141.08 86.5768L138.929 89.8345L137.533 90.2145L138.929 90.3774L140.499 88.4228L141.778 87.5541L143.115 86.9569L144.685 87.5541L152.07 94.8838L154.512 96.0239L157.419 98.4671L159.047 99.0644L165.095 99.173L166.49 99.9331L164.397 102.376L163.932 103.408L163.583 105.145L163.176 108.62L162.885 109.543L163.466 111.66L164.28 118.176L164.571 123.334L165.095 126.048L166.955 131.423L167.595 132.292L168.293 133.052L168.467 133.867L167.479 135.007L166.839 135.061L165.095 134.247L164.164 134.029H160.792L159.629 134.518L158.233 135.767L157.012 134.518L155.559 133.541L153.93 133.215L152.07 134.029L150.383 135.333L149.686 135.55L148.465 135.767L147.36 136.31L145.034 138.101L142.301 139.024L138.929 141.413L128.462 142.825V143.694L131.835 144.291L143.115 141.033L145.615 139.567L146.72 139.296L146.953 138.97L147.011 138.427L147.127 137.83L147.709 137.504L148.29 137.667L149.279 138.319L149.744 138.482L150.558 138.264L151.488 137.776L152.244 137.07L152.593 136.255L153.058 134.518L154.279 134.247L156.721 135.007L156.547 135.441L156.14 136.69L157.477 136.907ZM55.0235 130.5L54.035 131.695L50.9532 134.029L50.5462 136.255L44.6153 137.776L42.522 138.862L41.7661 138.482L39.731 134.301L38.9169 133.269L37.1144 131.423L35.3119 130.555L34.8467 130.5L32.5208 131.315L31.7068 131.206L31.9975 129.686L32.3464 129.089L32.9278 128.546L33.5675 128.111L34.2652 127.949L34.6141 127.406L34.4978 126.157L34.2071 124.962L34.0326 124.474L36.1259 123.008L41.4172 122.302L43.2779 120.022L42.3476 120.13L41.4172 120.022L40.545 119.75L39.731 119.262L40.138 118.013L41.6498 116.113L42.2313 114.81L41.9987 114.864L41.8242 113.832L41.7661 111.715L41.9987 111.28L42.5801 111.226L43.2198 111.335L43.7431 111.28L45.8945 110.52L50.3136 109.869L52.465 108.674L54.1513 109.217L55.6049 107.371L58.1634 102.485L59.8496 103.516L60.9544 102.105L61.8266 100.422L62.7569 100.693L62.3499 101.725L61.4196 103.354L61.2451 104.277L61.3614 104.874L62.1173 106.611L62.2918 107.697L62.1173 107.969L61.2451 112.149L60.6055 113.778L60.2566 114.321L59.6752 114.81V113.289L59.2682 112.312L58.7448 111.66L58.1634 111.28L56.3608 112.638L56.0701 113.126L55.8375 114.484L56.0119 115.298L56.3608 115.895L56.6516 116.547L57.233 120.782L57.8726 122.139L59.1519 122.628L58.6867 123.279L58.2215 123.551L57.6982 123.659L57.1167 123.605L57.64 123.985L58.1634 124.474L57.1749 125.885L56.0119 128.763L55.0235 130.5ZM228.532 54.8694L230.625 54.8151L231.498 55.0865L232.137 55.7381L232.661 57.3126L232.602 58.6699L232.021 59.7558L230.393 59.43L228.59 58.8871L222.892 60.1359L224.055 61.1131L224.927 63.0677L224.695 65.1309L222.892 67.0311L221.904 68.6057L221.264 70.343L220.043 71.7004L217.717 72.2433L216.205 71.1032L214.286 67.6284L211.612 67.1397L209.576 66.1081L208.239 64.9137L207.018 63.6106V62.7962L209.518 62.3076L211.96 60.0273L213.879 58.4527L216.903 58.2356L218.647 57.7469L219.985 56.3353L225.509 56.3896L228.532 54.8694Z" fill="#3C5D71" fill-opacity="0.41" stroke="white" stroke-width="0.5" stroke-linecap="round" stroke-linejoin="round"/>
<path d="M281.213 380.522L280.341 381.391L279.585 381.717L278.888 382.097L278.306 383.4L281.272 384.649L280.981 387.255L278.597 389.807L275.283 390.838L263.595 388.449L259.816 389.264L256.269 390.838L253.419 393.281L251.733 393.01L244.756 389.155L240.162 385.409L231.963 380.468L228.242 379.708L224.23 377.916L220.16 377.048L218.59 375.69L217.834 373.844L218.299 371.781L220.218 370.75L222.486 371.13L224.579 370.967L225.974 368.415L224.753 367.981L223.765 367.275L219.753 362.606L219.288 361.791V359.674L220.334 357.773L223.416 354.244L224.463 354.733L235.22 352.67L237.08 353.484L240.627 356.145L241.907 356.742L243.244 357.773L245.512 362.388L247.314 363.42L249.117 363.854L262.432 370.912L261.734 368.795L260.862 367.492L260.804 366.406L262.432 365.103H264.467L266.27 364.289L267.026 364.18L266.386 362.877L266.154 361.357L266.27 359.837L266.502 358.479L272.259 363.366L272.724 365.103L274.468 367.275L275.631 368.089L276.852 368.415L276.097 369.121L275.806 369.229L276.852 371.401L280.632 374.333L281.446 375.527L281.679 377.482L281.969 378.405V379.111L281.213 380.522ZM324.009 344.254L330.58 345.503L333.08 347.621L334.243 351.801L334.127 353.158L333.429 353.864L332.208 354.19L330.463 354.244L321.567 352.398L318.892 352.778L316.276 353.919L313.775 355.873L309.763 360.977L308.368 361.791L306.158 361.465L301.39 359.239V358.479H302.437L302.146 357.23L302.437 356.253L303.135 355.547L303.949 355.113L303.6 354.787L302.844 353.81L302.437 353.484L304.123 351.693L305.112 351.258L306.042 351.801L306.565 350.932L306.042 349.249L307.263 349.358L309.066 350.552L310.17 350.932L310.926 350.77L313.368 349.847L314.299 349.249L313.892 348.055L313.834 347.078L314.182 346.317L314.822 345.883V345.069L312.38 343.44L311.74 342.571L311.333 341.377L311.566 340.508L312.38 340.074H313.775L315.404 342.788L317.904 343.874L324.009 344.254ZM319.706 273.618L317.613 274.759L316.159 276.17L311.391 280.839V280.894L307.612 288.115L309.647 294.63L313.252 297.67L314.531 298.05L319.183 298.376L320.404 298.919L323.66 301.471L325.347 303.371L326.102 305.217L326.219 307.335L326.568 309.072L327.614 312.384L326.509 313.687L326.102 314.067L322.207 316.673L306.449 320.148L305.286 321.342L303.367 322.483L301.855 324.546L300.983 327.043L301.39 329.161L300.809 330.192L300.227 330.627L299.53 330.572L298.832 329.975L299.413 327.369L298.541 325.686L297.029 325.252L295.517 326.229L294.878 326.826L294.296 327.043L293.889 327.478L293.715 328.726L294.122 329.215L296.273 330.789L302.553 331.332L305.402 332.255L306.042 335.079L305.635 336.273L305.17 336.762L304.588 337.033L303.949 337.522L302.379 338.282L301.681 338.934L302.204 339.259L304.995 345.069L304.937 347.403L303.949 348.652L302.379 349.141L300.634 349.249L299.471 349.684L296.971 351.475L295.227 351.801L292.668 350.77L288.598 347.186L286.04 346.752L285.981 347.295L286.156 347.458H286.33L286.563 347.566L286.156 347.838L285.923 348.109L285.633 348.326L285.109 348.489L285.4 350.824L284.877 352.181L284.179 353.376L284.004 355.113L284.586 356.47L285.574 357.285L286.679 357.448L287.61 356.742L287.435 356.307L287.086 355.113L287.726 355.059L289.645 354.244L290.226 354.896L291.331 357.176L291.447 357.611L292.145 358.099L294.587 360.325L295.808 360.977L297.204 360.814L298.657 360.38L299.995 360.325L301.158 361.357L303.251 364.343L305.519 366.84V367.601L298.89 372.704L297.843 373.844L294.878 379.111L294.471 380.088L293.715 380.577L291.738 382.857L290.924 383.4L289.819 385.083V388.938L290.633 395.779L290.459 400.122L288.947 400.231L287.435 398.385L287.086 396.702L285.981 395.29L283.539 390.784L282.958 389.264L283.074 386.766L284.004 384.812L286.04 381.771L284.528 381.445L283.481 380.794L283.249 379.545L284.004 377.536L283.132 377.048L282.667 376.45L281.969 375.039L278.481 371.673L278.19 371.075L277.899 370.098L277.725 369.121L277.783 368.469V367.818L277.318 366.84L276.038 365.429L274.875 364.56L274.061 363.366L273.713 360.977V358.751L273.48 357.013L272.724 355.819L271.154 355.113V354.244L274.061 352.127L274.759 351.801L275.806 352.181L277.259 353.864L278.132 354.244L278.888 353.756L280.632 352.073L280.923 352.235L281.446 352.887L282.493 352.344L284.004 350.932V350.172L283.249 349.195L281.795 345.449L280.923 344.254L275.922 341.974L274.468 341.757L274.061 341.485L273.073 340.345L272.491 340.074L267.723 339.802L266.328 339.096L265.107 338.011L264.002 336.653L268.014 337.468L275.98 340.942L279.876 341.757L278.19 338.934L273.596 335.676L271.619 332.581L278.132 331.441L278.539 330.952L278.306 329.975L276.736 328.726L272.433 328.998L271.154 327.423L272.259 326.283L272.899 324.872L272.782 323.46L271.619 322.483H269.933L268.712 323.568L267.607 324.926L266.502 325.795L265.514 325.74L262.781 324.546L257.141 323.243L255.803 322.483L254.757 322.971L249.582 320.799L248.593 321.017L246.558 322.103L245.512 322.483H240.337V323.297L241.907 324.111L239.29 324.057L237.429 323.406L236.266 321.668L235.743 318.302L236.848 319.008L237.953 319.062L238.883 318.302L239.348 316.619L238.534 317.162L237.778 317.433L236.034 317.488L235.743 316.836L235.976 313.85L235.51 313.198L234.173 312.384L230.045 308.855L229.347 307.715L230.045 307.389L231.091 307.28L231.963 306.846L232.138 305.597L231.556 305L230.452 304.729L229.289 304.674L228.533 304.783L228.01 305.434L227.661 306.466L227.137 307.28H225.974L225.509 306.737L224.463 304.023V303.1L226.44 303.263L227.544 303.208L228.3 302.665L228.94 301.851L229.812 301.199L230.742 300.765L231.615 300.602L233.185 299.896L233.94 298.431L233.824 296.965L232.952 296.313L233.243 295.064L232.603 292.295L231.091 287.898L230.161 286.323L229.231 285.291L228.068 284.694L226.498 284.477L225.16 285.4L224.288 285.617L223.939 284.966L224.114 283.283L224.521 282.414L225.218 282.034L226.265 281.98L228.242 281.274L228.998 279.482L228.824 277.147L227.777 274.813L224.463 270.849L220.799 268.84L212.659 266.777V265.854L224.463 266.777L223.183 264.66L218.532 262.76L216.729 261.674L215.973 260.479L215.508 259.556L214.927 258.796L213.647 258.199L209.752 257.927L208.589 257.276V256.516L220.334 258.199L222.776 257.819L227.486 256.081L230.103 255.647V256.516L229.231 256.407L228.475 256.462L227.661 256.733L227.021 257.276L228.184 259.448L230.103 261.131L232.312 261.782L234.231 260.751L231.091 258.199L232.138 257.276L232.836 257.927L234.057 258.253L236.79 258.199L238.011 257.765L240.511 256.027L243.128 255.484L244.291 254.887L245.163 253.747L245.512 251.901L245.57 250.924L245.977 249.186L246.035 248.426L245.744 247.395L244.465 245.603L244 244.626L245.86 245.82L247.721 246.091L249.466 245.386L251.094 243.703L253.652 244.191L255.745 240.825L256.094 235.884L253.652 231.758L251.501 230.889L246.674 230.563L240.685 228.446L238.999 227.089L238.301 224.863L247.896 229.206L249.873 228.772L261.386 230.455L262.781 231.704L265.863 231.486L271.154 229.966L273.887 228.392L275.457 228.12L276.271 229.206L275.98 230.455L273.887 232.844L273.247 234.31L274.12 235.613L273.596 236.481L272.375 236.644L271.154 236.047L271.329 235.559L271.619 234.31L269.235 234.473L268.305 234.961L267.549 236.047L271.27 242.128L272.666 245.549L271.619 248.046L270.514 248.209L268.189 247.612L267.026 248.046L265.688 249.892L264.816 250.544L263.421 250.598V251.521L264.642 251.901L268.363 251.521L269.352 251.086L270.514 250.218L271.852 249.566L273.247 249.729L273.713 250.706L274.527 252.77L275.108 254.778L274.992 255.647L269.003 256.679L267.665 257.222L267.142 257.982L268.072 258.959L269.119 259.122L272.491 258.905L273.247 258.579L273.771 257.982L275.05 259.176L276.852 261.674L277.376 263.303L277.318 263.9L276.911 264.66L276.271 266.777L277.608 265.583L278.597 264.388L281.737 257.982L281.853 257.819H281.969L284.819 257.656L285.749 257.222L285.865 256.896L285.981 256.787L287.144 257.113L290.749 259.176L290.168 261.185L289.645 262.651L287.028 265.04L286.04 266.777L287.551 267.049L289.703 266.126L291.447 264.443L291.68 262.434L292.901 262L294.122 262.325L295.169 263.411L295.808 264.986L293.482 264.226L293.192 264.551L293.657 265.637L294.762 266.506L297.32 267.537L297.96 264.931L299.704 260.968L299.878 258.199L298.483 252.009H301.274L304.123 254.67L305.344 255.81L310.81 256.679L309.763 257.602L309.88 258.308L310.054 258.633L310.228 258.905L310.519 259.176L311.915 259.991L312.089 260.316L311.857 260.859L308.949 262.868L307.205 263.52L304.588 265.474L305.17 266.234L305.228 266.452L305.286 266.777V267.049L305.17 267.429L305.053 267.917L304.937 268.786L305.112 269.438L305.46 269.981L305.519 271.447L307.844 272.424L309.298 272.37L310.752 271.555L311.682 272.207L313.834 271.881L316.508 272.152L319.706 273.618Z" fill="#3C5D71" fill-opacity="0.41" stroke="white" stroke-width="0.5" stroke-linecap="round" stroke-linejoin="round"/>
<path d="M339.534 52.5319L339.185 53.1291L339.069 53.5635L338.894 53.8893L338.545 54.215L339.069 56.0067L339.301 57.1469L339.069 58.1785L338.255 59.6444L336.685 62.1419L336.22 63.3364L336.51 64.3679V65.128L336.685 66.594L335.522 67.8427L334.708 68.8743L333.661 69.7973L329.998 68.8743L326.916 68.6571L322.788 67.1369L317.613 64.1507L311.798 62.5762L305.693 57.907L304.588 56.4411L305.518 53.835L305.867 48.6771L306.158 41.1846L306.449 39.9358L307.088 38.6327L308.542 36.1895L309.123 34.3436L309.647 32.2261L310.286 30.9231L311.333 31.5746L314.357 35.7009L315.403 36.7868L317.089 38.4156L319.88 40.2616L322.73 42.4333L324.823 41.999L326.218 42.379L327.439 44.8222L328.253 45.7452L329.184 46.3424L334.533 49.9258L338.08 51.0117L339.534 52.5319ZM338.894 263.303L343.255 273.51L343.313 274.053L340.697 276.876L339.534 277.202L338.138 278.016L336.917 278.993L336.103 279.916L334.475 280.351L332.847 278.016L331.8 274.596L331.742 271.827L332.556 270.252L333.545 269.221L334.475 268.406L335.289 267.538L336.103 265.963L337.382 262.868L338.371 261.674L338.662 262.434L338.778 262.76L338.894 263.303ZM290.749 259.176L287.144 257.113L285.981 256.787L285.865 256.896L285.749 257.222L284.818 257.656L281.969 257.819H281.853L281.969 257.765L281.795 256.842L281.097 255.267L280.922 254.833L281.155 253.367L281.736 251.575L282.957 248.806L284.12 247.666L286.737 246.96L288.074 246.254L289.295 242.725L287.784 238.653L285.981 235.016L286.563 232.627L287.9 232.735L290.517 235.341L291.912 236.047L292.668 236.59L292.61 237.839L292.319 239.251L292.203 240.228L292.493 241.802L292.784 242.345L293.133 242.725L293.715 243.703L295.11 247.34L296.447 252.444L296.68 257.276L294.761 259.882L292.028 258.959L290.749 259.176ZM319.706 273.618L316.508 272.152L313.833 271.881L311.682 272.207L310.751 271.555L309.298 272.37L307.844 272.424L305.518 271.447L305.46 269.981L305.111 269.438L304.937 268.786L305.053 267.918L305.169 267.429L305.286 267.049V266.777L305.228 266.452L305.169 266.234L304.588 265.474L307.205 263.52L308.949 262.868L311.856 260.859L312.089 260.316L311.914 259.991L310.519 259.176L310.228 258.905L310.054 258.633L309.879 258.308L309.763 257.602L310.81 256.679L305.344 255.81L304.123 254.67L301.274 252.01H298.483L296.796 244.626V240.228L296.506 238.436L294.761 231.758L293.598 230.021L292.203 229.369L290.575 229.478L284.876 231.649L282.725 232.029L281.446 230.889L282.725 227.849L286.621 224.754L293.715 220.574L305.169 211.452L311.158 208.303L317.38 208.52L323.834 212.049H329.184L330.638 212.755L333.254 214.981L335.464 215.904L339.359 218.945L338.371 220.954L335.289 224.863L334.184 226.98L332.149 231.975L331.161 233.387V234.31L333.254 237.133L334.301 239.088L334.766 240.662L335.115 242.997L335.929 245.766L336.975 248.209L337.906 249.729L337.557 250.924L337.441 252.607L337.324 255.213L336.917 257.385L336.801 258.199L336.917 258.796L337.208 259.448L337.906 260.751L336.336 262.651L333.312 268.135L330.463 269.981L329.998 271.501L329.3 272.967L327.614 273.51L326.393 273.13L325.521 272.424L324.532 271.881L323.02 271.827L319.706 273.618Z" fill="#3C5D71" fill-opacity="0.41" stroke="white" stroke-width="0.5" stroke-linecap="round" stroke-linejoin="round"/>
<path d="M319.305 27.1017C333.701 27.102 345.358 38.6837 345.358 52.9543C345.358 67.2248 333.701 78.8056 319.305 78.8058C304.908 78.8058 293.25 67.2249 293.25 52.9543C293.25 38.6835 304.908 27.1017 319.305 27.1017Z" stroke="#3C5D71" stroke-opacity="0.41" stroke-width="2"/>
<ellipse cx="67.6682" cy="77.5198" rx="6.41822" ry="6.41822" fill="#E64047"/>
<ellipse cx="164.668" cy="95.5198" rx="6.41822" ry="6.41822" fill="#E64047"/>
<ellipse cx="35.6682" cy="158.52" rx="6.41822" ry="6.41822" fill="#E64047"/>
<circle cx="93.6682" cy="258.52" r="6.41822" fill="#E64047"/>
<ellipse cx="115.833" cy="271.684" rx="6.58279" ry="6.58279" fill="#E64047"/>
<ellipse cx="177.668" cy="291.52" rx="6.41822" ry="6.41822" fill="#E64047"/>
<path d="M239.086 304.52C239.086 308.065 236.213 310.938 232.668 310.938C229.124 310.938 226.25 308.065 226.25 304.52C226.25 300.975 229.124 298.102 232.668 298.102C236.213 298.102 239.086 300.975 239.086 304.52Z" fill="#E64047"/>
<ellipse cx="325.833" cy="46.6844" rx="6.58279" ry="6.58279" fill="#E64047"/>
</svg>
