<svg width="395" height="2193" viewBox="0 0 395 2193" fill="none" xmlns="http://www.w3.org/2000/svg">
<path d="M54.8778 21.6328V12.1661H57.4778V15.7661L60.3578 12.1661H63.2911L59.8511 16.4061L63.5311 21.6328H60.5445L58.1978 18.1528L57.4778 18.8995V21.6328H54.8778Z" fill="#EBEBEB"/>
<path d="M45.3335 21.6328V12.1661H48.9735C50.0224 12.1661 50.898 12.3795 51.6002 12.8061C52.3113 13.2239 52.8446 13.7928 53.2002 14.5128C53.5646 15.2239 53.7468 16.015 53.7468 16.8861C53.7468 17.8461 53.5469 18.6817 53.1468 19.3928C52.7557 20.1039 52.2002 20.655 51.4802 21.0461C50.7691 21.4373 49.9335 21.6328 48.9735 21.6328H45.3335ZM51.1068 16.8861C51.1068 16.3973 51.0224 15.9706 50.8535 15.6061C50.6846 15.2328 50.4402 14.9439 50.1202 14.7395C49.8002 14.535 49.418 14.4328 48.9735 14.4328H47.9335V19.3661H48.9735C49.4268 19.3661 49.8091 19.2595 50.1202 19.0461C50.4402 18.8328 50.6846 18.5395 50.8535 18.1661C51.0224 17.7839 51.1068 17.3573 51.1068 16.8861Z" fill="#EBEBEB"/>
<path d="M66.6667 17C66.6667 10.2805 61.2195 4.83333 54.5 4.83333C47.7805 4.83333 42.3333 10.2805 42.3333 17C42.3333 23.7195 47.7805 29.1667 54.5 29.1667V32.5C45.9396 32.5 39 25.5604 39 17C39 8.43959 45.9396 1.5 54.5 1.5C63.0604 1.5 70 8.43959 70 17C70 25.5604 63.0604 32.5 54.5 32.5V29.1667C61.2195 29.1667 66.6667 23.7195 66.6667 17Z" fill="#EBEBEB"/>
<path d="M253.098 12.9093V32.254M257.455 19.719C259.708 18.6571 261.197 16.7876 261.197 14.6637C261.197 13.4303 260.695 12.2799 259.832 11.3285C259.584 11.052 259.305 10.7976 259.001 10.5597C259.137 10.1836 259.205 9.80199 259.205 9.3927C259.205 8.34735 258.721 7.37943 257.915 6.61615C258.119 6.20686 258.231 5.76438 258.231 5.29978C258.231 3.19801 255.935 1.5 253.099 1.5C250.263 1.5 247.966 3.19801 247.966 5.29978C247.966 5.76438 248.078 6.20686 248.283 6.61615C247.476 7.37943 246.992 8.34735 246.992 9.3927C246.992 9.80199 247.06 10.1836 247.197 10.5597C245.832 11.6272 245 13.0763 245 14.6637C245 17.9768 248.624 20.6593 253.099 20.6593C254.706 20.6593 256.202 20.3164 257.455 19.719ZM257.455 19.719V19.8131C257.455 22.4458 260.263 24.5808 263.728 24.5808C267.192 24.5808 270 22.4458 270 19.8131C270 18.552 269.356 17.4016 268.293 16.5498C268.399 16.2511 268.453 15.9469 268.453 15.6206C268.453 14.7909 268.081 14.0221 267.457 13.4137C267.617 13.0874 267.703 12.7334 267.703 12.3684C267.703 10.698 265.925 9.34292 263.728 9.34292C262.009 9.34292 260.548 10.1726 259.997 11.3285C260.92 12.2799 261.458 13.4303 261.458 14.6637C261.458 16.7876 259.864 18.6571 257.455 19.719ZM263.32 18.9143V32.5" stroke="#EBEBEB" stroke-width="3" stroke-miterlimit="10" stroke-linecap="round"/>
<path d="M157.878 202.633V193.166H160.478V196.766L163.358 193.166H166.291L162.851 197.406L166.531 202.633H163.544L161.198 199.153L160.478 199.899V202.633H157.878Z" fill="#EBEBEB"/>
<path d="M148.334 202.633V193.166H151.974C153.022 193.166 153.898 193.379 154.6 193.806C155.311 194.224 155.845 194.793 156.2 195.513C156.565 196.224 156.747 197.015 156.747 197.886C156.747 198.846 156.547 199.682 156.147 200.393C155.756 201.104 155.2 201.655 154.48 202.046C153.769 202.437 152.934 202.633 151.974 202.633H148.334ZM154.107 197.886C154.107 197.397 154.022 196.971 153.854 196.606C153.685 196.233 153.44 195.944 153.12 195.739C152.8 195.535 152.418 195.433 151.974 195.433H150.934V200.366H151.974C152.427 200.366 152.809 200.259 153.12 200.046C153.44 199.833 153.685 199.539 153.854 199.166C154.022 198.784 154.107 198.357 154.107 197.886Z" fill="#EBEBEB"/>
<path d="M169.667 198C169.667 191.281 164.219 185.833 157.5 185.833C150.781 185.833 145.333 191.281 145.333 198C145.333 204.719 150.781 210.167 157.5 210.167V213.5C148.94 213.5 142 206.56 142 198C142 189.44 148.94 182.5 157.5 182.5C166.06 182.5 173 189.44 173 198C173 206.56 166.06 213.5 157.5 213.5V210.167C164.219 210.167 169.667 204.719 169.667 198Z" fill="#EBEBEB"/>
<path d="M356.098 193.909V213.254M360.455 200.719C362.708 199.657 364.197 197.788 364.197 195.664C364.197 194.43 363.695 193.28 362.832 192.329C362.584 192.052 362.305 191.798 362.001 191.56C362.137 191.184 362.205 190.802 362.205 190.393C362.205 189.347 361.721 188.379 360.915 187.616C361.119 187.207 361.231 186.764 361.231 186.3C361.231 184.198 358.935 182.5 356.099 182.5C353.263 182.5 350.966 184.198 350.966 186.3C350.966 186.764 351.078 187.207 351.283 187.616C350.476 188.379 349.992 189.347 349.992 190.393C349.992 190.802 350.06 191.184 350.197 191.56C348.832 192.627 348 194.076 348 195.664C348 198.977 351.624 201.659 356.099 201.659C357.706 201.659 359.202 201.316 360.455 200.719ZM360.455 200.719V200.813C360.455 203.446 363.263 205.581 366.728 205.581C370.192 205.581 373 203.446 373 200.813C373 199.552 372.356 198.402 371.293 197.55C371.399 197.251 371.453 196.947 371.453 196.621C371.453 195.791 371.081 195.022 370.457 194.414C370.617 194.087 370.703 193.733 370.703 193.368C370.703 191.698 368.925 190.343 366.728 190.343C365.009 190.343 363.548 191.173 362.997 192.329C363.92 193.28 364.458 194.43 364.458 195.664C364.458 197.788 362.864 199.657 360.455 200.719ZM366.32 199.914V213.5" stroke="#EBEBEB" stroke-width="3" stroke-miterlimit="10" stroke-linecap="round"/>
<path d="M52.408 379.1C53.4509 380.087 54.4943 381.074 55.5372 382.061C57.7864 379.813 60.0362 377.566 62.2854 375.318M57.4663 394.5C59.0865 393.631 61.2931 392.29 63.5951 390.332C65.1165 389.038 66.5918 387.783 67.7667 385.98C68.6534 384.62 69.5082 382.735 69.8682 376.981C70.0428 374.187 70.1018 370.459 69.675 366.04C68.381 366.244 66.4216 366.407 64.1078 366.04C60.9241 365.535 58.6569 364.276 57.4663 363.5C56.4442 364.211 54.3927 365.441 51.4353 365.975C48.7856 366.453 46.587 366.159 45.3554 365.91C44.8932 370.394 44.9533 374.169 45.1358 376.981C45.5109 382.781 46.4157 384.678 47.2603 385.968C48.4453 387.779 49.9453 389.056 51.5145 390.392C53.7637 392.307 55.9022 393.635 57.4663 394.5Z" stroke="#EBEBEB" stroke-width="3" stroke-miterlimit="10" stroke-linecap="round" stroke-linejoin="round"/>
<path d="M260.878 383.633V374.166H263.478V377.766L266.358 374.166H269.291L265.851 378.406L269.531 383.633H266.544L264.198 380.153L263.478 380.899V383.633H260.878Z" fill="#EBEBEB"/>
<path d="M251.334 383.633V374.166H254.974C256.022 374.166 256.898 374.379 257.6 374.806C258.311 375.224 258.845 375.793 259.2 376.513C259.565 377.224 259.747 378.015 259.747 378.886C259.747 379.846 259.547 380.682 259.147 381.393C258.756 382.104 258.2 382.655 257.48 383.046C256.769 383.437 255.934 383.633 254.974 383.633H251.334ZM257.107 378.886C257.107 378.397 257.022 377.971 256.854 377.606C256.685 377.233 256.44 376.944 256.12 376.739C255.8 376.535 255.418 376.433 254.974 376.433H253.934V381.366H254.974C255.427 381.366 255.809 381.259 256.12 381.046C256.44 380.833 256.685 380.539 256.854 380.166C257.022 379.784 257.107 379.357 257.107 378.886Z" fill="#EBEBEB"/>
<path d="M272.667 379C272.667 372.281 267.219 366.833 260.5 366.833C253.781 366.833 248.333 372.281 248.333 379C248.333 385.719 253.781 391.167 260.5 391.167V394.5C251.94 394.5 245 387.56 245 379C245 370.44 251.94 363.5 260.5 363.5C269.06 363.5 276 370.44 276 379C276 387.56 269.06 394.5 260.5 394.5V391.167C267.219 391.167 272.667 385.719 272.667 379Z" fill="#EBEBEB"/>
<path d="M152.408 560.1C153.451 561.087 154.494 562.074 155.537 563.061C157.786 560.813 160.036 558.566 162.285 556.318M157.466 575.5C159.087 574.631 161.293 573.29 163.595 571.332C165.116 570.038 166.592 568.783 167.767 566.98C168.653 565.62 169.508 563.735 169.868 557.981C170.043 555.187 170.102 551.459 169.675 547.04C168.381 547.244 166.422 547.407 164.108 547.04C160.924 546.535 158.657 545.276 157.466 544.5C156.444 545.211 154.393 546.441 151.435 546.975C148.786 547.453 146.587 547.159 145.355 546.91C144.893 551.394 144.953 555.169 145.136 557.981C145.511 563.781 146.416 565.678 147.26 566.968C148.445 568.779 149.945 570.056 151.514 571.392C153.764 573.307 155.902 574.635 157.466 575.5Z" stroke="#EBEBEB" stroke-width="3" stroke-miterlimit="10" stroke-linecap="round" stroke-linejoin="round"/>
<path d="M360.878 564.633V555.166H363.478V558.766L366.358 555.166H369.291L365.851 559.406L369.531 564.633H366.544L364.198 561.153L363.478 561.899V564.633H360.878Z" fill="#EBEBEB"/>
<path d="M351.334 564.633V555.166H354.974C356.022 555.166 356.898 555.379 357.6 555.806C358.311 556.224 358.845 556.793 359.2 557.513C359.565 558.224 359.747 559.015 359.747 559.886C359.747 560.846 359.547 561.682 359.147 562.393C358.756 563.104 358.2 563.655 357.48 564.046C356.769 564.437 355.934 564.633 354.974 564.633H351.334ZM357.107 559.886C357.107 559.397 357.022 558.971 356.854 558.606C356.685 558.233 356.44 557.944 356.12 557.739C355.8 557.535 355.418 557.433 354.974 557.433H353.934V562.366H354.974C355.427 562.366 355.809 562.259 356.12 562.046C356.44 561.833 356.685 561.539 356.854 561.166C357.022 560.784 357.107 560.357 357.107 559.886Z" fill="#EBEBEB"/>
<path d="M372.667 560C372.667 553.281 367.219 547.833 360.5 547.833C353.781 547.833 348.333 553.281 348.333 560C348.333 566.719 353.781 572.167 360.5 572.167V575.5C351.94 575.5 345 568.56 345 560C345 551.44 351.94 544.5 360.5 544.5C369.06 544.5 376 551.44 376 560C376 568.56 369.06 575.5 360.5 575.5V572.167C367.219 572.167 372.667 566.719 372.667 560Z" fill="#EBEBEB"/>
<path d="M67.7248 739.069V753.48C67.7248 755.143 66.3831 756.5 64.7391 756.5H47.2601C45.6214 756.5 44.2744 755.143 44.2744 753.48V739.064M67.7248 739.069C67.4013 739.225 67.1149 739.316 66.9081 739.38M67.7248 739.069C68.1119 738.881 68.5521 738.603 68.9498 738.163C68.9922 738.115 69.321 737.744 69.5756 737.24C70.387 735.61 69.8142 733.69 69.6551 733.196L67.6506 727.157C67.3377 726.219 66.9081 725.5 64.8717 725.5H47.1275C45.0964 725.5 44.6616 726.219 44.3487 727.157C43.7176 729.061 43.0865 730.965 42.4502 732.869C42.2911 733.304 41.5539 735.46 42.3971 737.192C42.6411 737.685 42.9805 738.077 43.0017 738.104C43.4153 738.565 43.8714 738.865 44.2744 739.064M44.2744 739.064C44.6032 739.219 44.8949 739.316 45.0964 739.38M45.0964 739.38C46.576 739.836 49.1692 739.906 50.4207 738.399M45.0964 739.38C45.9237 739.645 48.974 740.053 50.4207 738.399M50.4207 738.399C51.423 737.187 51.142 735.481 51.4814 735.476M50.4207 738.399C51.4644 737.205 51.1971 735.471 51.4814 735.476M51.4814 735.476C51.842 735.465 51.6935 737.364 52.9768 738.581C54.0056 739.557 55.4004 739.573 55.7292 739.579C56.111 739.584 57.5481 739.606 58.5292 738.635C59.7489 737.428 59.3883 735.524 59.8497 735.476M51.4814 735.476C51.7805 735.48 51.5073 737.394 52.6655 738.686C53.7124 739.853 55.3638 739.885 55.8129 739.875C56.1603 739.867 57.7671 739.831 58.7525 738.686C59.8709 737.386 59.4344 735.536 59.8497 735.476M59.8497 735.476C60.2898 735.422 60.311 737.165 61.5838 738.399M59.8497 735.476C60.2479 735.418 60.2591 737.175 61.5838 738.399M61.5838 738.399C63.0634 739.825 65.4498 739.825 66.9081 739.38M61.5838 738.399C63.329 740.011 66.1625 739.613 66.9081 739.38M59.3719 756.5H52.6274V746.881C52.6274 746.098 53.2547 745.464 54.0279 745.464H57.9708C58.7445 745.464 59.3713 746.099 59.3713 746.881L59.3719 756.5Z" stroke="#EBEBEB" stroke-width="3" stroke-miterlimit="10"/>
<path d="M252.408 741.1C253.451 742.087 254.494 743.074 255.537 744.061C257.786 741.813 260.036 739.566 262.285 737.318M257.466 756.5C259.087 755.631 261.293 754.29 263.595 752.332C265.116 751.038 266.592 749.783 267.767 747.98C268.653 746.62 269.508 744.735 269.868 738.981C270.043 736.187 270.102 732.459 269.675 728.04C268.381 728.244 266.422 728.407 264.108 728.04C260.924 727.535 258.657 726.276 257.466 725.5C256.444 726.211 254.393 727.441 251.435 727.975C248.786 728.453 246.587 728.159 245.355 727.91C244.893 732.394 244.953 736.169 245.136 738.981C245.511 744.781 246.416 746.678 247.26 747.968C248.445 749.779 249.945 751.056 251.514 752.392C253.764 754.307 255.902 755.635 257.466 756.5Z" stroke="#EBEBEB" stroke-width="3" stroke-miterlimit="10" stroke-linecap="round" stroke-linejoin="round"/>
<path d="M169.225 920.069V934.48C169.225 936.143 167.883 937.5 166.239 937.5H148.76C147.121 937.5 145.774 936.143 145.774 934.48V920.064M169.225 920.069C168.901 920.225 168.615 920.316 168.408 920.38M169.225 920.069C169.612 919.881 170.052 919.603 170.45 919.163C170.492 919.115 170.821 918.744 171.076 918.24C171.887 916.61 171.314 914.69 171.155 914.196L169.151 908.157C168.838 907.219 168.408 906.5 166.372 906.5H148.628C146.596 906.5 146.162 907.219 145.849 908.157C145.218 910.061 144.587 911.965 143.95 913.869C143.791 914.304 143.054 916.46 143.897 918.192C144.141 918.685 144.48 919.077 144.502 919.104C144.915 919.565 145.371 919.865 145.774 920.064M145.774 920.064C146.103 920.219 146.395 920.316 146.596 920.38M146.596 920.38C148.076 920.836 150.669 920.906 151.921 919.399M146.596 920.38C147.424 920.645 150.474 921.053 151.921 919.399M151.921 919.399C152.923 918.187 152.642 916.481 152.981 916.476M151.921 919.399C152.964 918.205 152.697 916.471 152.981 916.476M152.981 916.476C153.342 916.465 153.193 918.364 154.477 919.581C155.506 920.557 156.9 920.573 157.229 920.579C157.611 920.584 159.048 920.606 160.029 919.635C161.249 918.428 160.888 916.524 161.35 916.476M152.981 916.476C153.28 916.48 153.007 918.394 154.166 919.686C155.212 920.853 156.864 920.885 157.313 920.875C157.66 920.867 159.267 920.831 160.252 919.686C161.371 918.386 160.934 916.536 161.35 916.476M161.35 916.476C161.79 916.422 161.811 918.165 163.084 919.399M161.35 916.476C161.748 916.418 161.759 918.175 163.084 919.399M163.084 919.399C164.563 920.825 166.95 920.825 168.408 920.38M163.084 919.399C164.829 921.011 167.663 920.613 168.408 920.38M160.872 937.5H154.127V927.881C154.127 927.098 154.755 926.464 155.528 926.464H159.471C160.245 926.464 160.871 927.099 160.871 927.881L160.872 937.5Z" stroke="#EBEBEB" stroke-width="3" stroke-miterlimit="10"/>
<path d="M353.908 922.1C354.951 923.087 355.994 924.074 357.037 925.061C359.286 922.813 361.536 920.566 363.785 918.318M358.966 937.5C360.587 936.631 362.793 935.29 365.095 933.332C366.616 932.038 368.092 930.783 369.267 928.98C370.153 927.62 371.008 925.735 371.368 919.981C371.543 917.187 371.602 913.459 371.175 909.04C369.881 909.244 367.922 909.407 365.608 909.04C362.424 908.535 360.157 907.276 358.966 906.5C357.944 907.211 355.893 908.441 352.935 908.975C350.286 909.453 348.087 909.159 346.855 908.91C346.393 913.394 346.453 917.169 346.636 919.981C347.011 925.781 347.916 927.678 348.76 928.968C349.945 930.779 351.445 932.056 353.014 933.392C355.264 935.307 357.402 936.635 358.966 937.5Z" stroke="#EBEBEB" stroke-width="3" stroke-miterlimit="10" stroke-linecap="round" stroke-linejoin="round"/>
<path d="M53.0981 1098.91V1118.25M57.4553 1105.72C59.7081 1104.66 61.1975 1102.79 61.1975 1100.66C61.1975 1099.43 60.6948 1098.28 59.8322 1097.33C59.584 1097.05 59.3047 1096.8 59.0006 1096.56C59.1371 1096.18 59.2054 1095.8 59.2054 1095.39C59.2054 1094.35 58.7213 1093.38 57.9146 1092.62C58.1194 1092.21 58.2311 1091.76 58.2311 1091.3C58.2311 1089.2 55.9349 1087.5 53.0987 1087.5C50.2626 1087.5 47.9664 1089.2 47.9664 1091.3C47.9664 1091.76 48.0781 1092.21 48.2829 1092.62C47.4762 1093.38 46.9921 1094.35 46.9921 1095.39C46.9921 1095.8 47.0604 1096.18 47.1969 1096.56C45.8316 1097.63 45 1099.08 45 1100.66C45 1103.98 48.6243 1106.66 53.0987 1106.66C54.7061 1106.66 56.2017 1106.32 57.4553 1105.72ZM57.4553 1105.72V1105.81C57.4553 1108.45 60.2629 1110.58 63.7277 1110.58C67.1924 1110.58 70 1108.45 70 1105.81C70 1104.55 69.3558 1103.4 68.2934 1102.55C68.3995 1102.25 68.4529 1101.95 68.4529 1101.62C68.4529 1100.79 68.0811 1100.02 67.4574 1099.41C67.6169 1099.09 67.7032 1098.73 67.7032 1098.37C67.7032 1096.7 65.9246 1095.34 63.7277 1095.34C62.0086 1095.34 60.5484 1096.17 59.9973 1097.33C60.9201 1098.28 61.4575 1099.43 61.4575 1100.66C61.4575 1102.79 59.8645 1104.66 57.4553 1105.72ZM63.3199 1104.91V1118.5" stroke="#EBEBEB" stroke-width="3" stroke-miterlimit="10" stroke-linecap="round"/>
<path d="M270.725 1101.07V1115.48C270.725 1117.14 269.383 1118.5 267.739 1118.5H250.26C248.621 1118.5 247.274 1117.14 247.274 1115.48V1101.06M270.725 1101.07C270.401 1101.22 270.115 1101.32 269.908 1101.38M270.725 1101.07C271.112 1100.88 271.552 1100.6 271.95 1100.16C271.992 1100.11 272.321 1099.74 272.576 1099.24C273.387 1097.61 272.814 1095.69 272.655 1095.2L270.651 1089.16C270.338 1088.22 269.908 1087.5 267.872 1087.5H250.128C248.096 1087.5 247.662 1088.22 247.349 1089.16C246.718 1091.06 246.087 1092.97 245.45 1094.87C245.291 1095.3 244.554 1097.46 245.397 1099.19C245.641 1099.69 245.98 1100.08 246.002 1100.1C246.415 1100.57 246.871 1100.87 247.274 1101.06M247.274 1101.06C247.603 1101.22 247.895 1101.32 248.096 1101.38M248.096 1101.38C249.576 1101.84 252.169 1101.91 253.421 1100.4M248.096 1101.38C248.924 1101.64 251.974 1102.05 253.421 1100.4M253.421 1100.4C254.423 1099.19 254.142 1097.48 254.481 1097.48M253.421 1100.4C254.464 1099.21 254.197 1097.47 254.481 1097.48M254.481 1097.48C254.842 1097.47 254.693 1099.36 255.977 1100.58C257.006 1101.56 258.4 1101.57 258.729 1101.58C259.111 1101.58 260.548 1101.61 261.529 1100.63C262.749 1099.43 262.388 1097.52 262.85 1097.48M254.481 1097.48C254.78 1097.48 254.507 1099.39 255.666 1100.69C256.712 1101.85 258.364 1101.88 258.813 1101.87C259.16 1101.87 260.767 1101.83 261.752 1100.69C262.871 1099.39 262.434 1097.54 262.85 1097.48M262.85 1097.48C263.29 1097.42 263.311 1099.17 264.584 1100.4M262.85 1097.48C263.248 1097.42 263.259 1099.18 264.584 1100.4M264.584 1100.4C266.063 1101.83 268.45 1101.83 269.908 1101.38M264.584 1100.4C266.329 1102.01 269.163 1101.61 269.908 1101.38M262.372 1118.5H255.627V1108.88C255.627 1108.1 256.255 1107.46 257.028 1107.46H260.971C261.745 1107.46 262.371 1108.1 262.371 1108.88L262.372 1118.5Z" stroke="#EBEBEB" stroke-width="3" stroke-miterlimit="10"/>
<path d="M153.098 1279.91V1299.25M157.455 1286.72C159.708 1285.66 161.197 1283.79 161.197 1281.66C161.197 1280.43 160.695 1279.28 159.832 1278.33C159.584 1278.05 159.305 1277.8 159.001 1277.56C159.137 1277.18 159.205 1276.8 159.205 1276.39C159.205 1275.35 158.721 1274.38 157.915 1273.62C158.119 1273.21 158.231 1272.76 158.231 1272.3C158.231 1270.2 155.935 1268.5 153.099 1268.5C150.263 1268.5 147.966 1270.2 147.966 1272.3C147.966 1272.76 148.078 1273.21 148.283 1273.62C147.476 1274.38 146.992 1275.35 146.992 1276.39C146.992 1276.8 147.06 1277.18 147.197 1277.56C145.832 1278.63 145 1280.08 145 1281.66C145 1284.98 148.624 1287.66 153.099 1287.66C154.706 1287.66 156.202 1287.32 157.455 1286.72ZM157.455 1286.72V1286.81C157.455 1289.45 160.263 1291.58 163.728 1291.58C167.192 1291.58 170 1289.45 170 1286.81C170 1285.55 169.356 1284.4 168.293 1283.55C168.399 1283.25 168.453 1282.95 168.453 1282.62C168.453 1281.79 168.081 1281.02 167.457 1280.41C167.617 1280.09 167.703 1279.73 167.703 1279.37C167.703 1277.7 165.925 1276.34 163.728 1276.34C162.009 1276.34 160.548 1277.17 159.997 1278.33C160.92 1279.28 161.458 1280.43 161.458 1281.66C161.458 1283.79 159.864 1285.66 157.455 1286.72ZM163.32 1285.91V1299.5" stroke="#EBEBEB" stroke-width="3" stroke-miterlimit="10" stroke-linecap="round"/>
<path d="M370.725 1282.07V1296.48C370.725 1298.14 369.383 1299.5 367.739 1299.5H350.26C348.621 1299.5 347.274 1298.14 347.274 1296.48V1282.06M370.725 1282.07C370.401 1282.22 370.115 1282.32 369.908 1282.38M370.725 1282.07C371.112 1281.88 371.552 1281.6 371.95 1281.16C371.992 1281.11 372.321 1280.74 372.576 1280.24C373.387 1278.61 372.814 1276.69 372.655 1276.2L370.651 1270.16C370.338 1269.22 369.908 1268.5 367.872 1268.5H350.128C348.096 1268.5 347.662 1269.22 347.349 1270.16C346.718 1272.06 346.087 1273.97 345.45 1275.87C345.291 1276.3 344.554 1278.46 345.397 1280.19C345.641 1280.69 345.98 1281.08 346.002 1281.1C346.415 1281.57 346.871 1281.87 347.274 1282.06M347.274 1282.06C347.603 1282.22 347.895 1282.32 348.096 1282.38M348.096 1282.38C349.576 1282.84 352.169 1282.91 353.421 1281.4M348.096 1282.38C348.924 1282.64 351.974 1283.05 353.421 1281.4M353.421 1281.4C354.423 1280.19 354.142 1278.48 354.481 1278.48M353.421 1281.4C354.464 1280.21 354.197 1278.47 354.481 1278.48M354.481 1278.48C354.842 1278.47 354.693 1280.36 355.977 1281.58C357.006 1282.56 358.4 1282.57 358.729 1282.58C359.111 1282.58 360.548 1282.61 361.529 1281.63C362.749 1280.43 362.388 1278.52 362.85 1278.48M354.481 1278.48C354.78 1278.48 354.507 1280.39 355.666 1281.69C356.712 1282.85 358.364 1282.88 358.813 1282.87C359.16 1282.87 360.767 1282.83 361.752 1281.69C362.871 1280.39 362.434 1278.54 362.85 1278.48M362.85 1278.48C363.29 1278.42 363.311 1280.17 364.584 1281.4M362.85 1278.48C363.248 1278.42 363.259 1280.18 364.584 1281.4M364.584 1281.4C366.063 1282.83 368.45 1282.83 369.908 1282.38M364.584 1281.4C366.329 1283.01 369.163 1282.61 369.908 1282.38M362.372 1299.5H355.627V1289.88C355.627 1289.1 356.255 1288.46 357.028 1288.46H360.971C361.745 1288.46 362.371 1289.1 362.371 1289.88L362.372 1299.5Z" stroke="#EBEBEB" stroke-width="3" stroke-miterlimit="10"/>
<path d="M54.8778 1469.63V1460.17H57.4778V1463.77L60.3578 1460.17H63.2911L59.8511 1464.41L63.5311 1469.63H60.5445L58.1978 1466.15L57.4778 1466.9V1469.63H54.8778Z" fill="#EBEBEB"/>
<path d="M45.3335 1469.63V1460.17H48.9735C50.0224 1460.17 50.898 1460.38 51.6002 1460.81C52.3113 1461.22 52.8446 1461.79 53.2002 1462.51C53.5646 1463.22 53.7468 1464.02 53.7468 1464.89C53.7468 1465.85 53.5469 1466.68 53.1468 1467.39C52.7557 1468.1 52.2002 1468.66 51.4802 1469.05C50.7691 1469.44 49.9335 1469.63 48.9735 1469.63H45.3335ZM51.1068 1464.89C51.1068 1464.4 51.0224 1463.97 50.8535 1463.61C50.6846 1463.23 50.4402 1462.94 50.1202 1462.74C49.8002 1462.54 49.418 1462.43 48.9735 1462.43H47.9335V1467.37H48.9735C49.4268 1467.37 49.8091 1467.26 50.1202 1467.05C50.4402 1466.83 50.6846 1466.54 50.8535 1466.17C51.0224 1465.78 51.1068 1465.36 51.1068 1464.89Z" fill="#EBEBEB"/>
<path d="M66.6667 1465C66.6667 1458.28 61.2195 1452.83 54.5 1452.83C47.7805 1452.83 42.3333 1458.28 42.3333 1465C42.3333 1471.72 47.7805 1477.17 54.5 1477.17V1480.5C45.9396 1480.5 39 1473.56 39 1465C39 1456.44 45.9396 1449.5 54.5 1449.5C63.0604 1449.5 70 1456.44 70 1465C70 1473.56 63.0604 1480.5 54.5 1480.5V1477.17C61.2195 1477.17 66.6667 1471.72 66.6667 1465Z" fill="#EBEBEB"/>
<path d="M253.098 1460.91V1480.25M257.455 1467.72C259.708 1466.66 261.197 1464.79 261.197 1462.66C261.197 1461.43 260.695 1460.28 259.832 1459.33C259.584 1459.05 259.305 1458.8 259.001 1458.56C259.137 1458.18 259.205 1457.8 259.205 1457.39C259.205 1456.35 258.721 1455.38 257.915 1454.62C258.119 1454.21 258.231 1453.76 258.231 1453.3C258.231 1451.2 255.935 1449.5 253.099 1449.5C250.263 1449.5 247.966 1451.2 247.966 1453.3C247.966 1453.76 248.078 1454.21 248.283 1454.62C247.476 1455.38 246.992 1456.35 246.992 1457.39C246.992 1457.8 247.06 1458.18 247.197 1458.56C245.832 1459.63 245 1461.08 245 1462.66C245 1465.98 248.624 1468.66 253.099 1468.66C254.706 1468.66 256.202 1468.32 257.455 1467.72ZM257.455 1467.72V1467.81C257.455 1470.45 260.263 1472.58 263.728 1472.58C267.192 1472.58 270 1470.45 270 1467.81C270 1466.55 269.356 1465.4 268.293 1464.55C268.399 1464.25 268.453 1463.95 268.453 1463.62C268.453 1462.79 268.081 1462.02 267.457 1461.41C267.617 1461.09 267.703 1460.73 267.703 1460.37C267.703 1458.7 265.925 1457.34 263.728 1457.34C262.009 1457.34 260.548 1458.17 259.997 1459.33C260.92 1460.28 261.458 1461.43 261.458 1462.66C261.458 1464.79 259.864 1466.66 257.455 1467.72ZM263.32 1466.91V1480.5" stroke="#EBEBEB" stroke-width="3" stroke-miterlimit="10" stroke-linecap="round"/>
<path d="M157.878 1650.63V1641.17H160.478V1644.77L163.358 1641.17H166.291L162.851 1645.41L166.531 1650.63H163.544L161.198 1647.15L160.478 1647.9V1650.63H157.878Z" fill="#EBEBEB"/>
<path d="M148.334 1650.63V1641.17H151.974C153.022 1641.17 153.898 1641.38 154.6 1641.81C155.311 1642.22 155.845 1642.79 156.2 1643.51C156.565 1644.22 156.747 1645.02 156.747 1645.89C156.747 1646.85 156.547 1647.68 156.147 1648.39C155.756 1649.1 155.2 1649.66 154.48 1650.05C153.769 1650.44 152.934 1650.63 151.974 1650.63H148.334ZM154.107 1645.89C154.107 1645.4 154.022 1644.97 153.854 1644.61C153.685 1644.23 153.44 1643.94 153.12 1643.74C152.8 1643.54 152.418 1643.43 151.974 1643.43H150.934V1648.37H151.974C152.427 1648.37 152.809 1648.26 153.12 1648.05C153.44 1647.83 153.685 1647.54 153.854 1647.17C154.022 1646.78 154.107 1646.36 154.107 1645.89Z" fill="#EBEBEB"/>
<path d="M169.667 1646C169.667 1639.28 164.219 1633.83 157.5 1633.83C150.781 1633.83 145.333 1639.28 145.333 1646C145.333 1652.72 150.781 1658.17 157.5 1658.17V1661.5C148.94 1661.5 142 1654.56 142 1646C142 1637.44 148.94 1630.5 157.5 1630.5C166.06 1630.5 173 1637.44 173 1646C173 1654.56 166.06 1661.5 157.5 1661.5V1658.17C164.219 1658.17 169.667 1652.72 169.667 1646Z" fill="#EBEBEB"/>
<path d="M356.098 1641.91V1661.25M360.455 1648.72C362.708 1647.66 364.197 1645.79 364.197 1643.66C364.197 1642.43 363.695 1641.28 362.832 1640.33C362.584 1640.05 362.305 1639.8 362.001 1639.56C362.137 1639.18 362.205 1638.8 362.205 1638.39C362.205 1637.35 361.721 1636.38 360.915 1635.62C361.119 1635.21 361.231 1634.76 361.231 1634.3C361.231 1632.2 358.935 1630.5 356.099 1630.5C353.263 1630.5 350.966 1632.2 350.966 1634.3C350.966 1634.76 351.078 1635.21 351.283 1635.62C350.476 1636.38 349.992 1637.35 349.992 1638.39C349.992 1638.8 350.06 1639.18 350.197 1639.56C348.832 1640.63 348 1642.08 348 1643.66C348 1646.98 351.624 1649.66 356.099 1649.66C357.706 1649.66 359.202 1649.32 360.455 1648.72ZM360.455 1648.72V1648.81C360.455 1651.45 363.263 1653.58 366.728 1653.58C370.192 1653.58 373 1651.45 373 1648.81C373 1647.55 372.356 1646.4 371.293 1645.55C371.399 1645.25 371.453 1644.95 371.453 1644.62C371.453 1643.79 371.081 1643.02 370.457 1642.41C370.617 1642.09 370.703 1641.73 370.703 1641.37C370.703 1639.7 368.925 1638.34 366.728 1638.34C365.009 1638.34 363.548 1639.17 362.997 1640.33C363.92 1641.28 364.458 1642.43 364.458 1643.66C364.458 1645.79 362.864 1647.66 360.455 1648.72ZM366.32 1647.91V1661.5" stroke="#EBEBEB" stroke-width="3" stroke-miterlimit="10" stroke-linecap="round"/>
<path d="M52.408 1827.1C53.4509 1828.09 54.4943 1829.07 55.5372 1830.06C57.7864 1827.81 60.0362 1825.57 62.2854 1823.32M57.4663 1842.5C59.0865 1841.63 61.2931 1840.29 63.5951 1838.33C65.1165 1837.04 66.5918 1835.78 67.7667 1833.98C68.6534 1832.62 69.5082 1830.74 69.8682 1824.98C70.0428 1822.19 70.1018 1818.46 69.675 1814.04C68.381 1814.24 66.4216 1814.41 64.1078 1814.04C60.9241 1813.53 58.6569 1812.28 57.4663 1811.5C56.4442 1812.21 54.3927 1813.44 51.4353 1813.98C48.7856 1814.45 46.587 1814.16 45.3554 1813.91C44.8932 1818.39 44.9533 1822.17 45.1358 1824.98C45.5109 1830.78 46.4157 1832.68 47.2603 1833.97C48.4453 1835.78 49.9453 1837.06 51.5145 1838.39C53.7637 1840.31 55.9022 1841.63 57.4663 1842.5Z" stroke="#EBEBEB" stroke-width="3" stroke-miterlimit="10" stroke-linecap="round" stroke-linejoin="round"/>
<path d="M260.878 1831.63V1822.17H263.478V1825.77L266.358 1822.17H269.291L265.851 1826.41L269.531 1831.63H266.544L264.198 1828.15L263.478 1828.9V1831.63H260.878Z" fill="#EBEBEB"/>
<path d="M251.334 1831.63V1822.17H254.974C256.022 1822.17 256.898 1822.38 257.6 1822.81C258.311 1823.22 258.845 1823.79 259.2 1824.51C259.565 1825.22 259.747 1826.02 259.747 1826.89C259.747 1827.85 259.547 1828.68 259.147 1829.39C258.756 1830.1 258.2 1830.66 257.48 1831.05C256.769 1831.44 255.934 1831.63 254.974 1831.63H251.334ZM257.107 1826.89C257.107 1826.4 257.022 1825.97 256.854 1825.61C256.685 1825.23 256.44 1824.94 256.12 1824.74C255.8 1824.54 255.418 1824.43 254.974 1824.43H253.934V1829.37H254.974C255.427 1829.37 255.809 1829.26 256.12 1829.05C256.44 1828.83 256.685 1828.54 256.854 1828.17C257.022 1827.78 257.107 1827.36 257.107 1826.89Z" fill="#EBEBEB"/>
<path d="M272.667 1827C272.667 1820.28 267.219 1814.83 260.5 1814.83C253.781 1814.83 248.333 1820.28 248.333 1827C248.333 1833.72 253.781 1839.17 260.5 1839.17V1842.5C251.94 1842.5 245 1835.56 245 1827C245 1818.44 251.94 1811.5 260.5 1811.5C269.06 1811.5 276 1818.44 276 1827C276 1835.56 269.06 1842.5 260.5 1842.5V1839.17C267.219 1839.17 272.667 1833.72 272.667 1827Z" fill="#EBEBEB"/>
<path d="M152.408 2008.1C153.451 2009.09 154.494 2010.07 155.537 2011.06C157.786 2008.81 160.036 2006.57 162.285 2004.32M157.466 2023.5C159.087 2022.63 161.293 2021.29 163.595 2019.33C165.116 2018.04 166.592 2016.78 167.767 2014.98C168.653 2013.62 169.508 2011.74 169.868 2005.98C170.043 2003.19 170.102 1999.46 169.675 1995.04C168.381 1995.24 166.422 1995.41 164.108 1995.04C160.924 1994.53 158.657 1993.28 157.466 1992.5C156.444 1993.21 154.393 1994.44 151.435 1994.98C148.786 1995.45 146.587 1995.16 145.355 1994.91C144.893 1999.39 144.953 2003.17 145.136 2005.98C145.511 2011.78 146.416 2013.68 147.26 2014.97C148.445 2016.78 149.945 2018.06 151.514 2019.39C153.764 2021.31 155.902 2022.63 157.466 2023.5Z" stroke="#EBEBEB" stroke-width="3" stroke-miterlimit="10" stroke-linecap="round" stroke-linejoin="round"/>
<path d="M360.878 2012.63V2003.17H363.478V2006.77L366.358 2003.17H369.291L365.851 2007.41L369.531 2012.63H366.544L364.198 2009.15L363.478 2009.9V2012.63H360.878Z" fill="#EBEBEB"/>
<path d="M351.334 2012.63V2003.17H354.974C356.022 2003.17 356.898 2003.38 357.6 2003.81C358.311 2004.22 358.845 2004.79 359.2 2005.51C359.565 2006.22 359.747 2007.02 359.747 2007.89C359.747 2008.85 359.547 2009.68 359.147 2010.39C358.756 2011.1 358.2 2011.66 357.48 2012.05C356.769 2012.44 355.934 2012.63 354.974 2012.63H351.334ZM357.107 2007.89C357.107 2007.4 357.022 2006.97 356.854 2006.61C356.685 2006.23 356.44 2005.94 356.12 2005.74C355.8 2005.54 355.418 2005.43 354.974 2005.43H353.934V2010.37H354.974C355.427 2010.37 355.809 2010.26 356.12 2010.05C356.44 2009.83 356.685 2009.54 356.854 2009.17C357.022 2008.78 357.107 2008.36 357.107 2007.89Z" fill="#EBEBEB"/>
<path d="M372.667 2008C372.667 2001.28 367.219 1995.83 360.5 1995.83C353.781 1995.83 348.333 2001.28 348.333 2008C348.333 2014.72 353.781 2020.17 360.5 2020.17V2023.5C351.94 2023.5 345 2016.56 345 2008C345 1999.44 351.94 1992.5 360.5 1992.5C369.06 1992.5 376 1999.44 376 2008C376 2016.56 369.06 2023.5 360.5 2023.5V2020.17C367.219 2020.17 372.667 2014.72 372.667 2008Z" fill="#EBEBEB"/>
<path d="M67.7248 2187.07V2201.48C67.7248 2203.14 66.3831 2204.5 64.7391 2204.5H47.2601C45.6214 2204.5 44.2744 2203.14 44.2744 2201.48V2187.06M67.7248 2187.07C67.4013 2187.22 67.1149 2187.32 66.9081 2187.38M67.7248 2187.07C68.1119 2186.88 68.5521 2186.6 68.9498 2186.16C68.9922 2186.11 69.321 2185.74 69.5756 2185.24C70.387 2183.61 69.8142 2181.69 69.6551 2181.2L67.6506 2175.16C67.3377 2174.22 66.9081 2173.5 64.8717 2173.5H47.1275C45.0964 2173.5 44.6616 2174.22 44.3487 2175.16C43.7176 2177.06 43.0865 2178.97 42.4502 2180.87C42.2911 2181.3 41.5539 2183.46 42.3971 2185.19C42.6411 2185.69 42.9805 2186.08 43.0017 2186.1C43.4153 2186.57 43.8714 2186.87 44.2744 2187.06M44.2744 2187.06C44.6032 2187.22 44.8949 2187.32 45.0964 2187.38M45.0964 2187.38C46.576 2187.84 49.1692 2187.91 50.4207 2186.4M45.0964 2187.38C45.9237 2187.64 48.974 2188.05 50.4207 2186.4M50.4207 2186.4C51.423 2185.19 51.142 2183.48 51.4814 2183.48M50.4207 2186.4C51.4644 2185.21 51.1971 2183.47 51.4814 2183.48M51.4814 2183.48C51.842 2183.47 51.6935 2185.36 52.9768 2186.58C54.0056 2187.56 55.4004 2187.57 55.7292 2187.58C56.111 2187.58 57.5481 2187.61 58.5292 2186.63C59.7489 2185.43 59.3883 2183.52 59.8497 2183.48M51.4814 2183.48C51.7805 2183.48 51.5073 2185.39 52.6655 2186.69C53.7124 2187.85 55.3638 2187.88 55.8129 2187.87C56.1603 2187.87 57.7671 2187.83 58.7525 2186.69C59.8709 2185.39 59.4344 2183.54 59.8497 2183.48M59.8497 2183.48C60.2898 2183.42 60.311 2185.17 61.5838 2186.4M59.8497 2183.48C60.2479 2183.42 60.2591 2185.18 61.5838 2186.4M61.5838 2186.4C63.0634 2187.83 65.4498 2187.83 66.9081 2187.38M61.5838 2186.4C63.329 2188.01 66.1625 2187.61 66.9081 2187.38M59.3719 2204.5H52.6274V2194.88C52.6274 2194.1 53.2547 2193.46 54.0279 2193.46H57.9708C58.7445 2193.46 59.3713 2194.1 59.3713 2194.88L59.3719 2204.5Z" stroke="#EBEBEB" stroke-width="3" stroke-miterlimit="10"/>
<path d="M252.408 2189.1C253.451 2190.09 254.494 2191.07 255.537 2192.06C257.786 2189.81 260.036 2187.57 262.285 2185.32M257.466 2204.5C259.087 2203.63 261.293 2202.29 263.595 2200.33C265.116 2199.04 266.592 2197.78 267.767 2195.98C268.653 2194.62 269.508 2192.74 269.868 2186.98C270.043 2184.19 270.102 2180.46 269.675 2176.04C268.381 2176.24 266.422 2176.41 264.108 2176.04C260.924 2175.53 258.657 2174.28 257.466 2173.5C256.444 2174.21 254.393 2175.44 251.435 2175.98C248.786 2176.45 246.587 2176.16 245.355 2175.91C244.893 2180.39 244.953 2184.17 245.136 2186.98C245.511 2192.78 246.416 2194.68 247.26 2195.97C248.445 2197.78 249.945 2199.06 251.514 2200.39C253.764 2202.31 255.902 2203.63 257.466 2204.5Z" stroke="#EBEBEB" stroke-width="3" stroke-miterlimit="10" stroke-linecap="round" stroke-linejoin="round"/>
</svg>
