<svg width="28" height="34" viewBox="0 0 28 34" fill="none" xmlns="http://www.w3.org/2000/svg">
<path d="M8.90796 17.0996C9.95086 18.0867 10.9943 19.0738 12.0372 20.061C14.2864 17.8131 16.5362 15.5658 18.7854 13.3179M13.9663 32.5C15.5865 31.6307 17.7931 30.2901 20.0951 28.3318C21.6165 27.0377 23.0918 25.7829 24.2667 23.9805C25.1534 22.6204 26.0082 20.735 26.3682 14.9811C26.5428 12.1865 26.6018 8.45923 26.175 4.03994C24.881 4.24365 22.9216 4.40692 20.6078 4.03994C17.4241 3.53464 15.1569 2.27641 13.9663 1.5C12.9442 2.2105 10.8927 3.44128 7.93527 3.97503C5.28563 4.45286 3.08696 4.15877 1.85536 3.90962C1.39316 8.39433 1.45326 12.169 1.63578 14.9811C2.01093 20.7809 2.91567 22.6783 3.76032 23.9685C4.9453 25.7794 6.44534 27.0561 8.01445 28.3918C10.2637 30.3071 12.4022 31.6347 13.9663 32.5Z" stroke="#3BB7EA" stroke-width="3" stroke-miterlimit="10" stroke-linecap="round" stroke-linejoin="round"/>
</svg>
