<svg width="31" height="34" viewBox="0 0 31 34" fill="none" xmlns="http://www.w3.org/2000/svg">
<path d="M27.2248 15.0692V29.4804C27.2248 31.1431 25.8831 32.5 24.2391 32.5H6.76008C5.12142 32.5 3.77443 31.1431 3.77443 29.4804V15.0638M27.2248 15.0692C26.9013 15.2247 26.6149 15.3159 26.4081 15.3803M27.2248 15.0692C27.6119 14.8815 28.0521 14.6026 28.4498 14.1628C28.4922 14.1145 28.821 13.7445 29.0756 13.2403C29.887 11.6099 29.3142 9.68979 29.1551 9.19637L27.1506 3.15727C26.8377 2.21869 26.4081 1.5 24.3717 1.5H6.6275C4.59641 1.5 4.16156 2.21869 3.84867 3.15727C3.2176 5.06125 2.58653 6.96523 1.95016 8.86921C1.79106 9.30363 1.05393 11.4597 1.89713 13.192C2.14107 13.6855 2.48047 14.077 2.50168 14.1038C2.91532 14.5651 3.37139 14.8654 3.77443 15.0638M3.77443 15.0638C4.10322 15.2194 4.39489 15.3159 4.59641 15.3803M4.59641 15.3803C6.07598 15.8362 8.6692 15.9059 9.92074 14.3988M4.59641 15.3803C5.4237 15.6447 8.47405 16.0528 9.92074 14.3988M9.92074 14.3988C10.923 13.1867 10.642 11.4811 10.9814 11.4758M9.92074 14.3988C10.9644 13.2055 10.6971 11.4715 10.9814 11.4758M10.9814 11.4758C11.342 11.4651 11.1935 13.3637 12.4768 14.5811C13.5056 15.5573 14.9004 15.5734 15.2292 15.5787C15.611 15.5841 17.0481 15.6055 18.0292 14.6348C19.2489 13.428 18.8883 11.5241 19.3497 11.4758M10.9814 11.4758C11.2805 11.4801 11.0073 13.3937 12.1655 14.6857C13.2124 15.8533 14.8638 15.885 15.3129 15.8748C15.6603 15.8673 17.2671 15.8313 18.2525 14.6857C19.3709 13.3862 18.9344 11.5364 19.3497 11.4758M19.3497 11.4758C19.7898 11.4221 19.811 13.1652 21.0838 14.3988M19.3497 11.4758C19.7479 11.4179 19.7591 13.1754 21.0838 14.3988M21.0838 14.3988C22.5634 15.8254 24.9498 15.8254 26.4081 15.3803M21.0838 14.3988C22.829 16.011 25.6625 15.6125 26.4081 15.3803M18.8719 32.5H12.1274V22.8809C12.1274 22.0984 12.7547 21.4644 13.5279 21.4644H17.4708C18.2445 21.4644 18.8713 22.0989 18.8713 22.8809L18.8719 32.5Z" stroke="#FFD998" stroke-width="3" stroke-miterlimit="10"/>
</svg>
