<svg width="28" height="34" viewBox="0 0 28 34" fill="none" xmlns="http://www.w3.org/2000/svg">
<path d="M9.59813 12.9093V32.254M13.9553 19.719C16.2081 18.6571 17.6975 16.7876 17.6975 14.6637C17.6975 13.4303 17.1948 12.2799 16.3322 11.3285C16.084 11.052 15.8047 10.7976 15.5006 10.5597C15.6371 10.1836 15.7054 9.80199 15.7054 9.3927C15.7054 8.34735 15.2213 7.37943 14.4146 6.61615C14.6194 6.20686 14.7311 5.76438 14.7311 5.29978C14.7311 3.19801 12.4349 1.5 9.59875 1.5C6.76264 1.5 4.46644 3.19801 4.46644 5.29978C4.46644 5.76438 4.57814 6.20686 4.78294 6.61615C3.97617 7.37943 3.49211 8.34735 3.49211 9.3927C3.49211 9.80199 3.56037 10.1836 3.6969 10.5597C2.3316 11.6272 1.5 13.0763 1.5 14.6637C1.5 17.9768 5.12427 20.6593 9.59875 20.6593C11.2061 20.6593 12.7017 20.3164 13.9553 19.719ZM13.9553 19.719V19.8131C13.9553 22.4458 16.7629 24.5808 20.2277 24.5808C23.6924 24.5808 26.5 22.4458 26.5 19.8131C26.5 18.552 25.8558 17.4016 24.7934 16.5498C24.8995 16.2511 24.9529 15.9469 24.9529 15.6206C24.9529 14.7909 24.5811 14.0221 23.9574 13.4137C24.1169 13.0874 24.2032 12.7334 24.2032 12.3684C24.2032 10.698 22.4246 9.34292 20.2277 9.34292C18.5086 9.34292 17.0484 10.1726 16.4973 11.3285C17.4201 12.2799 17.9575 13.4303 17.9575 14.6637C17.9575 16.7876 16.3645 18.6571 13.9553 19.719ZM19.8199 18.9143V32.5" stroke="#81D979" stroke-width="3" stroke-miterlimit="10" stroke-linecap="round"/>
</svg>
